#usda 1.0
(
    defaultPrim = "object"
    metersPerUnit = 1
    upAxis = "Z"
    doc = "Generated by mc_isaac_mesh_to_usd from cylinder.STL"
)

def Xform "object" (
    prepend apiSchemas = ["PhysicsRigidBodyAPI", "PhysicsMassAPI"]
)
{
    float physics:mass = 1
    def Scope "visuals"
    {
        def Mesh "visual_0"
        {
            color3f[] primvars:displayColor = [(0.2, 0.55, 0.9)]
            int[] faceVertexCounts = [3, 3, 3, 3, 3, 3, 3, 3, 3, 3, 3, 3, 3, 3, 3, 3, 3, 3, 3, 3, 3, 3, 3, 3, 3, 3, 3, 3, 3, 3, 3, 3, 3, 3, 3, 3, 3, 3, 3, 3, 3, 3, 3, 3, 3, 3, 3, 3, 3, 3, 3, 3, 3, 3, 3, 3, 3, 3, 3, 3, 3, 3, 3, 3, 3, 3, 3, 3, 3, 3, 3, 3, 3, 3, 3, 3, 3, 3, 3, 3, 3, 3, 3, 3, 3, 3, 3, 3, 3, 3, 3, 3, 3, 3, 3, 3, 3, 3, 3, 3, 3, 3, 3, 3, 3, 3, 3, 3, 3, 3, 3, 3, 3, 3, 3, 3, 3, 3, 3, 3, 3, 3, 3, 3, 3, 3, 3, 3, 3, 3, 3, 3, 3, 3, 3, 3, 3, 3, 3, 3, 3, 3, 3, 3, 3, 3, 3, 3, 3, 3, 3, 3, 3, 3, 3, 3, 3, 3, 3, 3, 3, 3, 3, 3, 3, 3, 3, 3, 3, 3, 3, 3, 3, 3, 3, 3, 3, 3, 3, 3, 3, 3, 3, 3, 3, 3, 3, 3, 3, 3, 3, 3, 3, 3, 3, 3, 3, 3, 3, 3, 3, 3, 3, 3, 3, 3, 3, 3, 3, 3, 3, 3, 3, 3, 3, 3, 3, 3, 3, 3, 3, 3, 3, 3, 3, 3, 3, 3, 3, 3, 3, 3, 3, 3, 3, 3, 3, 3, 3, 3, 3, 3, 3, 3, 3, 3, 3, 3, 3, 3, 3, 3]
            int[] faceVertexIndices = [0, 1, 2, 0, 2, 3, 4, 5, 6, 4, 6, 7, 1, 8, 9, 1, 9, 2, 10, 4, 7, 10, 7, 11, 8, 12, 13, 8, 13, 9, 14, 10, 11, 14, 11, 15, 12, 16, 17, 12, 17, 13, 18, 14, 15, 18, 15, 19, 16, 20, 21, 16, 21, 17, 22, 18, 19, 22, 19, 23, 20, 24, 25, 20, 25, 21, 26, 22, 23, 26, 23, 27, 24, 28, 29, 24, 29, 25, 30, 26, 27, 30, 27, 31, 28, 32, 33, 28, 33, 29, 34, 30, 31, 34, 31, 35, 32, 36, 37, 32, 37, 33, 38, 34, 35, 38, 35, 39, 36, 40, 41, 36, 41, 37, 42, 38, 39, 42, 39, 43, 40, 44, 45, 40, 45, 41, 46, 42, 43, 46, 43, 47, 44, 48, 49, 44, 49, 45, 50, 46, 47, 50, 47, 51, 48, 52, 53, 48, 53, 49, 54, 50, 51, 54, 51, 55, 52, 56, 57, 52, 57, 53, 58, 54, 55, 58, 55, 59, 56, 60, 61, 56, 61, 57, 62, 58, 59, 62, 59, 63, 60, 64, 65, 60, 65, 61, 66, 62, 63, 66, 63, 67, 64, 68, 69, 64, 69, 65, 70, 66, 67, 70, 67, 71, 68, 72, 73, 68, 73, 69, 74, 70, 71, 74, 71, 75, 72, 76, 77, 72, 77, 73, 78, 74, 75, 78, 75, 79, 76, 80, 81, 76, 81, 77, 82, 78, 79, 82, 79, 83, 80, 84, 85, 80, 85, 81, 86, 82, 83, 86, 83, 87, 84, 88, 89, 84, 89, 85, 90, 86, 87, 90, 87, 91, 88, 92, 93, 88, 93, 89, 94, 90, 91, 94, 91, 95, 92, 96, 97, 92, 97, 93, 98, 94, 95, 98, 95, 99, 96, 100, 101, 96, 101, 97, 102, 98, 99, 102, 99, 103, 100, 104, 105, 100, 105, 101, 106, 102, 103, 106, 103, 107, 104, 108, 109, 104, 109, 105, 110, 106, 107, 110, 107, 111, 108, 112, 113, 108, 113, 109, 114, 110, 111, 114, 111, 115, 112, 116, 117, 112, 117, 113, 118, 114, 115, 118, 115, 119, 116, 120, 121, 116, 121, 117, 122, 118, 119, 122, 119, 123, 120, 124, 125, 120, 125, 121, 126, 122, 123, 126, 123, 127, 124, 0, 3, 124, 3, 125, 5, 126, 127, 5, 127, 6, 125, 3, 2, 2, 9, 13, 13, 17, 21, 21, 25, 29, 29, 33, 37, 37, 41, 45, 45, 49, 53, 53, 57, 61, 61, 65, 69, 69, 73, 77, 77, 81, 85, 85, 89, 93, 93, 97, 101, 101, 105, 109, 109, 113, 117, 117, 121, 125, 125, 2, 13, 13, 21, 29, 29, 37, 45, 45, 53, 61, 61, 69, 77, 77, 85, 93, 93, 101, 109, 109, 117, 125, 125, 13, 29, 29, 45, 61, 61, 77, 93, 93, 109, 125, 125, 29, 61, 61, 93, 125, 0, 5, 4, 0, 4, 1, 124, 126, 5, 124, 5, 0, 11, 7, 6, 6, 127, 123, 123, 119, 115, 115, 111, 107, 107, 103, 99, 99, 95, 91, 91, 87, 83, 83, 79, 75, 75, 71, 67, 67, 63, 59, 59, 55, 51, 51, 47, 43, 43, 39, 35, 35, 31, 27, 27, 23, 19, 19, 15, 11, 11, 6, 123, 123, 115, 107, 107, 99, 91, 91, 83, 75, 75, 67, 59, 59, 51, 43, 43, 35, 27, 27, 19, 11, 11, 123, 107, 107, 91, 75, 75, 59, 43, 43, 27, 11, 11, 107, 75, 75, 43, 11, 1, 4, 10, 1, 10, 8, 8, 10, 14, 8, 14, 12, 12, 14, 18, 12, 18, 16, 16, 18, 22, 16, 22, 20, 20, 22, 26, 20, 26, 24, 24, 26, 30, 24, 30, 28, 28, 30, 34, 28, 34, 32, 32, 34, 38, 32, 38, 36, 36, 38, 42, 36, 42, 40, 40, 42, 46, 40, 46, 44, 44, 46, 50, 44, 50, 48, 48, 50, 54, 48, 54, 52, 52, 54, 58, 52, 58, 56, 56, 58, 62, 56, 62, 60, 60, 62, 66, 60, 66, 64, 64, 66, 70, 64, 70, 68, 68, 70, 74, 68, 74, 72, 72, 74, 78, 72, 78, 76, 76, 78, 82, 76, 82, 80, 80, 82, 86, 80, 86, 84, 84, 86, 90, 84, 90, 88, 88, 90, 94, 88, 94, 92, 92, 94, 98, 92, 98, 96, 96, 98, 102, 96, 102, 100, 100, 102, 106, 100, 106, 104, 104, 106, 110, 104, 110, 108, 108, 110, 114, 108, 114, 112, 112, 114, 118, 112, 118, 116, 116, 118, 122, 116, 122, 120, 120, 122, 126, 120, 126, 124]
            point3f[] points = [(0, 0.1, -0.09), (0.019509, 0.0980785, -0.09), (0.0175487, 0.0882232, -0.1), (0, 0.0899516, -0.1), (0.019509, 0.0980785, 0.09), (0, 0.1, 0.09), (0, 0.0899516, 0.1), (0.0175487, 0.0882232, 0.1), (0.0382683, 0.092388, -0.09), (0.034423, 0.0831044, -0.1), (0.0382683, 0.092388, 0.09), (0.034423, 0.0831044, 0.1), (0.055557, 0.083147, -0.09), (0.0499744, 0.074792, -0.1), (0.055557, 0.083147, 0.09), (0.0499744, 0.074792, 0.1), (0.0707107, 0.0707107, -0.09), (0.0636054, 0.0636054, -0.1), (0.0707107, 0.0707107, 0.09), (0.0636054, 0.0636054, 0.1), (0.083147, 0.055557, -0.09), (0.074792, 0.0499744, -0.1), (0.083147, 0.055557, 0.09), (0.074792, 0.0499744, 0.1), (0.092388, 0.0382683, -0.09), (0.0831044, 0.034423, -0.1), (0.092388, 0.0382683, 0.09), (0.0831044, 0.034423, 0.1), (0.0980785, 0.019509, -0.09), (0.0882232, 0.0175487, -0.1), (0.0980785, 0.019509, 0.09), (0.0882232, 0.0175487, 0.1), (0.1, 0, -0.09), (0.0899516, 0, -0.1), (0.1, 0, 0.09), (0.0899516, 0, 0.1), (0.0980785, -0.019509, -0.09), (0.0882232, -0.0175487, -0.1), (0.0980785, -0.019509, 0.09), (0.0882232, -0.0175487, 0.1), (0.092388, -0.0382683, -0.09), (0.0831044, -0.034423, -0.1), (0.092388, -0.0382683, 0.09), (0.0831044, -0.034423, 0.1), (0.083147, -0.055557, -0.09), (0.074792, -0.0499744, -0.1), (0.083147, -0.055557, 0.09), (0.074792, -0.0499744, 0.1), (0.0707107, -0.0707107, -0.09), (0.0636054, -0.0636054, -0.1), (0.0707107, -0.0707107, 0.09), (0.0636054, -0.0636054, 0.1), (0.055557, -0.083147, -0.09), (0.0499744, -0.074792, -0.1), (0.055557, -0.083147, 0.09), (0.0499744, -0.074792, 0.1), (0.0382683, -0.092388, -0.09), (0.034423, -0.0831044, -0.1), (0.0382683, -0.092388, 0.09), (0.034423, -0.0831044, 0.1), (0.019509, -0.0980785, -0.09), (0.0175487, -0.0882232, -0.1), (0.019509, -0.0980785, 0.09), (0.0175487, -0.0882232, 0.1), (0, -0.1, -0.09), (0, -0.0899516, -0.1), (0, -0.1, 0.09), (0, -0.0899516, 0.1), (-0.019509, -0.0980785, -0.09), (-0.0175487, -0.0882232, -0.1), (-0.019509, -0.0980785, 0.09), (-0.0175487, -0.0882232, 0.1), (-0.0382683, -0.092388, -0.09), (-0.034423, -0.0831044, -0.1), (-0.0382683, -0.092388, 0.09), (-0.034423, -0.0831044, 0.1), (-0.055557, -0.083147, -0.09), (-0.0499744, -0.074792, -0.1), (-0.055557, -0.083147, 0.09), (-0.0499744, -0.074792, 0.1), (-0.0707107, -0.0707107, -0.09), (-0.0636054, -0.0636054, -0.1), (-0.0707107, -0.0707107, 0.09), (-0.0636054, -0.0636054, 0.1), (-0.083147, -0.055557, -0.09), (-0.074792, -0.0499744, -0.1), (-0.083147, -0.055557, 0.09), (-0.074792, -0.0499744, 0.1), (-0.092388, -0.0382683, -0.09), (-0.0831044, -0.034423, -0.1), (-0.092388, -0.0382683, 0.09), (-0.0831044, -0.034423, 0.1), (-0.0980785, -0.019509, -0.09), (-0.0882232, -0.0175487, -0.1), (-0.0980785, -0.019509, 0.09), (-0.0882232, -0.0175487, 0.1), (-0.1, 0, -0.09), (-0.0899516, 0, -0.1), (-0.1, 0, 0.09), (-0.0899516, 0, 0.1), (-0.0980785, 0.019509, -0.09), (-0.0882232, 0.0175487, -0.1), (-0.0980785, 0.019509, 0.09), (-0.0882232, 0.0175487, 0.1), (-0.092388, 0.0382683, -0.09), (-0.0831044, 0.034423, -0.1), (-0.092388, 0.0382683, 0.09), (-0.0831044, 0.034423, 0.1), (-0.083147, 0.055557, -0.09), (-0.074792, 0.0499744, -0.1), (-0.083147, 0.055557, 0.09), (-0.074792, 0.0499744, 0.1), (-0.0707107, 0.0707107, -0.09), (-0.0636054, 0.0636054, -0.1), (-0.0707107, 0.0707107, 0.09), (-0.0636054, 0.0636054, 0.1), (-0.055557, 0.083147, -0.09), (-0.0499744, 0.074792, -0.1), (-0.055557, 0.083147, 0.09), (-0.0499744, 0.074792, 0.1), (-0.0382683, 0.092388, -0.09), (-0.034423, 0.0831044, -0.1), (-0.0382683, 0.092388, 0.09), (-0.034423, 0.0831044, 0.1), (-0.019509, 0.0980785, -0.09), (-0.0175487, 0.0882232, -0.1), (-0.019509, 0.0980785, 0.09), (-0.0175487, 0.0882232, 0.1)]
            uniform token subdivisionScheme = "none"
        }
    }
    def Scope "collisions"
    {
        def Mesh "collision_0" (
            prepend apiSchemas = ["PhysicsCollisionAPI", "PhysicsMeshCollisionAPI"]
        )
        {
            uniform token physics:approximation = "convexHull"
            uniform token purpose = "guide"
            int[] faceVertexCounts = [3, 3, 3, 3, 3, 3, 3, 3, 3, 3, 3, 3, 3, 3, 3, 3, 3, 3, 3, 3, 3, 3, 3, 3, 3, 3, 3, 3, 3, 3, 3, 3, 3, 3, 3, 3, 3, 3, 3, 3, 3, 3, 3, 3, 3, 3, 3, 3, 3, 3, 3, 3, 3, 3, 3, 3, 3, 3, 3, 3, 3, 3, 3, 3, 3, 3, 3, 3, 3, 3, 3, 3, 3, 3, 3, 3, 3, 3, 3, 3, 3, 3, 3, 3, 3, 3, 3, 3, 3, 3, 3, 3, 3, 3, 3, 3, 3, 3, 3, 3, 3, 3, 3, 3, 3, 3, 3, 3, 3, 3, 3, 3, 3, 3, 3, 3, 3, 3, 3, 3, 3, 3, 3, 3, 3, 3, 3, 3, 3, 3, 3, 3, 3, 3, 3, 3, 3, 3, 3, 3, 3, 3, 3, 3, 3, 3, 3, 3, 3, 3, 3, 3, 3, 3, 3, 3, 3, 3, 3, 3, 3, 3, 3, 3, 3, 3, 3, 3, 3, 3, 3, 3, 3, 3, 3, 3, 3, 3, 3, 3, 3, 3, 3, 3, 3, 3, 3, 3, 3, 3, 3, 3, 3, 3, 3, 3, 3, 3, 3, 3, 3, 3, 3, 3, 3, 3, 3, 3, 3, 3, 3, 3, 3, 3, 3, 3, 3, 3, 3, 3, 3, 3, 3, 3, 3, 3, 3, 3, 3, 3, 3, 3, 3, 3, 3, 3, 3, 3, 3, 3, 3, 3, 3, 3, 3, 3, 3, 3, 3, 3, 3, 3]
            int[] faceVertexIndices = [0, 1, 2, 0, 2, 3, 4, 5, 6, 4, 6, 7, 1, 8, 9, 1, 9, 2, 10, 4, 7, 10, 7, 11, 8, 12, 13, 8, 13, 9, 14, 10, 11, 14, 11, 15, 12, 16, 17, 12, 17, 13, 18, 14, 15, 18, 15, 19, 16, 20, 21, 16, 21, 17, 22, 18, 19, 22, 19, 23, 20, 24, 25, 20, 25, 21, 26, 22, 23, 26, 23, 27, 24, 28, 29, 24, 29, 25, 30, 26, 27, 30, 27, 31, 28, 32, 33, 28, 33, 29, 34, 30, 31, 34, 31, 35, 32, 36, 37, 32, 37, 33, 38, 34, 35, 38, 35, 39, 36, 40, 41, 36, 41, 37, 42, 38, 39, 42, 39, 43, 40, 44, 45, 40, 45, 41, 46, 42, 43, 46, 43, 47, 44, 48, 49, 44, 49, 45, 50, 46, 47, 50, 47, 51, 48, 52, 53, 48, 53, 49, 54, 50, 51, 54, 51, 55, 52, 56, 57, 52, 57, 53, 58, 54, 55, 58, 55, 59, 56, 60, 61, 56, 61, 57, 62, 58, 59, 62, 59, 63, 60, 64, 65, 60, 65, 61, 66, 62, 63, 66, 63, 67, 64, 68, 69, 64, 69, 65, 70, 66, 67, 70, 67, 71, 68, 72, 73, 68, 73, 69, 74, 70, 71, 74, 71, 75, 72, 76, 77, 72, 77, 73, 78, 74, 75, 78, 75, 79, 76, 80, 81, 76, 81, 77, 82, 78, 79, 82, 79, 83, 80, 84, 85, 80, 85, 81, 86, 82, 83, 86, 83, 87, 84, 88, 89, 84, 89, 85, 90, 86, 87, 90, 87, 91, 88, 92, 93, 88, 93, 89, 94, 90, 91, 94, 91, 95, 92, 96, 97, 92, 97, 93, 98, 94, 95, 98, 95, 99, 96, 100, 101, 96, 101, 97, 102, 98, 99, 102, 99, 103, 100, 104, 105, 100, 105, 101, 106, 102, 103, 106, 103, 107, 104, 108, 109, 104, 109, 105, 110, 106, 107, 110, 107, 111, 108, 112, 113, 108, 113, 109, 114, 110, 111, 114, 111, 115, 112, 116, 117, 112, 117, 113, 118, 114, 115, 118, 115, 119, 116, 120, 121, 116, 121, 117, 122, 118, 119, 122, 119, 123, 120, 124, 125, 120, 125, 121, 126, 122, 123, 126, 123, 127, 124, 0, 3, 124, 3, 125, 5, 126, 127, 5, 127, 6, 125, 3, 2, 2, 9, 13, 13, 17, 21, 21, 25, 29, 29, 33, 37, 37, 41, 45, 45, 49, 53, 53, 57, 61, 61, 65, 69, 69, 73, 77, 77, 81, 85, 85, 89, 93, 93, 97, 101, 101, 105, 109, 109, 113, 117, 117, 121, 125, 125, 2, 13, 13, 21, 29, 29, 37, 45, 45, 53, 61, 61, 69, 77, 77, 85, 93, 93, 101, 109, 109, 117, 125, 125, 13, 29, 29, 45, 61, 61, 77, 93, 93, 109, 125, 125, 29, 61, 61, 93, 125, 0, 5, 4, 0, 4, 1, 124, 126, 5, 124, 5, 0, 11, 7, 6, 6, 127, 123, 123, 119, 115, 115, 111, 107, 107, 103, 99, 99, 95, 91, 91, 87, 83, 83, 79, 75, 75, 71, 67, 67, 63, 59, 59, 55, 51, 51, 47, 43, 43, 39, 35, 35, 31, 27, 27, 23, 19, 19, 15, 11, 11, 6, 123, 123, 115, 107, 107, 99, 91, 91, 83, 75, 75, 67, 59, 59, 51, 43, 43, 35, 27, 27, 19, 11, 11, 123, 107, 107, 91, 75, 75, 59, 43, 43, 27, 11, 11, 107, 75, 75, 43, 11, 1, 4, 10, 1, 10, 8, 8, 10, 14, 8, 14, 12, 12, 14, 18, 12, 18, 16, 16, 18, 22, 16, 22, 20, 20, 22, 26, 20, 26, 24, 24, 26, 30, 24, 30, 28, 28, 30, 34, 28, 34, 32, 32, 34, 38, 32, 38, 36, 36, 38, 42, 36, 42, 40, 40, 42, 46, 40, 46, 44, 44, 46, 50, 44, 50, 48, 48, 50, 54, 48, 54, 52, 52, 54, 58, 52, 58, 56, 56, 58, 62, 56, 62, 60, 60, 62, 66, 60, 66, 64, 64, 66, 70, 64, 70, 68, 68, 70, 74, 68, 74, 72, 72, 74, 78, 72, 78, 76, 76, 78, 82, 76, 82, 80, 80, 82, 86, 80, 86, 84, 84, 86, 90, 84, 90, 88, 88, 90, 94, 88, 94, 92, 92, 94, 98, 92, 98, 96, 96, 98, 102, 96, 102, 100, 100, 102, 106, 100, 106, 104, 104, 106, 110, 104, 110, 108, 108, 110, 114, 108, 114, 112, 112, 114, 118, 112, 118, 116, 116, 118, 122, 116, 122, 120, 120, 122, 126, 120, 126, 124]
            point3f[] points = [(0, 0.1, -0.09), (0.019509, 0.0980785, -0.09), (0.0175487, 0.0882232, -0.1), (0, 0.0899516, -0.1), (0.019509, 0.0980785, 0.09), (0, 0.1, 0.09), (0, 0.0899516, 0.1), (0.0175487, 0.0882232, 0.1), (0.0382683, 0.092388, -0.09), (0.034423, 0.0831044, -0.1), (0.0382683, 0.092388, 0.09), (0.034423, 0.0831044, 0.1), (0.055557, 0.083147, -0.09), (0.0499744, 0.074792, -0.1), (0.055557, 0.083147, 0.09), (0.0499744, 0.074792, 0.1), (0.0707107, 0.0707107, -0.09), (0.0636054, 0.0636054, -0.1), (0.0707107, 0.0707107, 0.09), (0.0636054, 0.0636054, 0.1), (0.083147, 0.055557, -0.09), (0.074792, 0.0499744, -0.1), (0.083147, 0.055557, 0.09), (0.074792, 0.0499744, 0.1), (0.092388, 0.0382683, -0.09), (0.0831044, 0.034423, -0.1), (0.092388, 0.0382683, 0.09), (0.0831044, 0.034423, 0.1), (0.0980785, 0.019509, -0.09), (0.0882232, 0.0175487, -0.1), (0.0980785, 0.019509, 0.09), (0.0882232, 0.0175487, 0.1), (0.1, 0, -0.09), (0.0899516, 0, -0.1), (0.1, 0, 0.09), (0.0899516, 0, 0.1), (0.0980785, -0.019509, -0.09), (0.0882232, -0.0175487, -0.1), (0.0980785, -0.019509, 0.09), (0.0882232, -0.0175487, 0.1), (0.092388, -0.0382683, -0.09), (0.0831044, -0.034423, -0.1), (0.092388, -0.0382683, 0.09), (0.0831044, -0.034423, 0.1), (0.083147, -0.055557, -0.09), (0.074792, -0.0499744, -0.1), (0.083147, -0.055557, 0.09), (0.074792, -0.0499744, 0.1), (0.0707107, -0.0707107, -0.09), (0.0636054, -0.0636054, -0.1), (0.0707107, -0.0707107, 0.09), (0.0636054, -0.0636054, 0.1), (0.055557, -0.083147, -0.09), (0.0499744, -0.074792, -0.1), (0.055557, -0.083147, 0.09), (0.0499744, -0.074792, 0.1), (0.0382683, -0.092388, -0.09), (0.034423, -0.0831044, -0.1), (0.0382683, -0.092388, 0.09), (0.034423, -0.0831044, 0.1), (0.019509, -0.0980785, -0.09), (0.0175487, -0.0882232, -0.1), (0.019509, -0.0980785, 0.09), (0.0175487, -0.0882232, 0.1), (0, -0.1, -0.09), (0, -0.0899516, -0.1), (0, -0.1, 0.09), (0, -0.0899516, 0.1), (-0.019509, -0.0980785, -0.09), (-0.0175487, -0.0882232, -0.1), (-0.019509, -0.0980785, 0.09), (-0.0175487, -0.0882232, 0.1), (-0.0382683, -0.092388, -0.09), (-0.034423, -0.0831044, -0.1), (-0.0382683, -0.092388, 0.09), (-0.034423, -0.0831044, 0.1), (-0.055557, -0.083147, -0.09), (-0.0499744, -0.074792, -0.1), (-0.055557, -0.083147, 0.09), (-0.0499744, -0.074792, 0.1), (-0.0707107, -0.0707107, -0.09), (-0.0636054, -0.0636054, -0.1), (-0.0707107, -0.0707107, 0.09), (-0.0636054, -0.0636054, 0.1), (-0.083147, -0.055557, -0.09), (-0.074792, -0.0499744, -0.1), (-0.083147, -0.055557, 0.09), (-0.074792, -0.0499744, 0.1), (-0.092388, -0.0382683, -0.09), (-0.0831044, -0.034423, -0.1), (-0.092388, -0.0382683, 0.09), (-0.0831044, -0.034423, 0.1), (-0.0980785, -0.019509, -0.09), (-0.0882232, -0.0175487, -0.1), (-0.0980785, -0.019509, 0.09), (-0.0882232, -0.0175487, 0.1), (-0.1, 0, -0.09), (-0.0899516, 0, -0.1), (-0.1, 0, 0.09), (-0.0899516, 0, 0.1), (-0.0980785, 0.019509, -0.09), (-0.0882232, 0.0175487, -0.1), (-0.0980785, 0.019509, 0.09), (-0.0882232, 0.0175487, 0.1), (-0.092388, 0.0382683, -0.09), (-0.0831044, 0.034423, -0.1), (-0.092388, 0.0382683, 0.09), (-0.0831044, 0.034423, 0.1), (-0.083147, 0.055557, -0.09), (-0.074792, 0.0499744, -0.1), (-0.083147, 0.055557, 0.09), (-0.074792, 0.0499744, 0.1), (-0.0707107, 0.0707107, -0.09), (-0.0636054, 0.0636054, -0.1), (-0.0707107, 0.0707107, 0.09), (-0.0636054, 0.0636054, 0.1), (-0.055557, 0.083147, -0.09), (-0.0499744, 0.074792, -0.1), (-0.055557, 0.083147, 0.09), (-0.0499744, 0.074792, 0.1), (-0.0382683, 0.092388, -0.09), (-0.034423, 0.0831044, -0.1), (-0.0382683, 0.092388, 0.09), (-0.034423, 0.0831044, 0.1), (-0.019509, 0.0980785, -0.09), (-0.0175487, 0.0882232, -0.1), (-0.019509, 0.0980785, 0.09), (-0.0175487, 0.0882232, 0.1)]
            uniform token subdivisionScheme = "none"
        }
    }
}
