#usda 1.0
(
    defaultPrim = "object"
    metersPerUnit = 1
    upAxis = "Z"
    doc = "Generated by mc_isaac_mesh_to_usd from sphere.STL"
)

def Xform "object" (
    prepend apiSchemas = ["PhysicsRigidBodyAPI", "PhysicsMassAPI"]
)
{
    float physics:mass = 1
    def Scope "visuals"
    {
        def Mesh "visual_0"
        {
            color3f[] primvars:displayColor = [(0.85, 0.85, 0.2)]
            int[] faceVertexCounts = [3, 3, 3, 3, 3, 3, 3, 3, 3, 3, 3, 3, 3, 3, 3, 3, 3, 3, 3, 3, 3, 3, 3, 3, 3, 3, 3, 3, 3, 3, 3, 3, 3, 3, 3, 3, 3, 3, 3, 3, 3, 3, 3, 3, 3, 3, 3, 3, 3, 3, 3, 3, 3, 3, 3, 3, 3, 3, 3, 3, 3, 3, 3, 3, 3, 3, 3, 3, 3, 3, 3, 3, 3, 3, 3, 3, 3, 3, 3, 3, 3, 3, 3, 3, 3, 3, 3, 3, 3, 3, 3, 3, 3, 3, 3, 3, 3, 3, 3, 3, 3, 3, 3, 3, 3, 3, 3, 3, 3, 3, 3, 3, 3, 3, 3, 3, 3, 3, 3, 3, 3, 3, 3, 3, 3, 3, 3, 3, 3, 3, 3, 3, 3, 3, 3, 3, 3, 3, 3, 3, 3, 3, 3, 3, 3, 3, 3, 3, 3, 3, 3, 3, 3, 3, 3, 3, 3, 3, 3, 3, 3, 3, 3, 3, 3, 3, 3, 3, 3, 3, 3, 3, 3, 3, 3, 3, 3, 3, 3, 3, 3, 3, 3, 3, 3, 3, 3, 3, 3, 3, 3, 3, 3, 3, 3, 3, 3, 3, 3, 3, 3, 3, 3, 3, 3, 3, 3, 3, 3, 3, 3, 3, 3, 3, 3, 3, 3, 3, 3, 3, 3, 3, 3, 3, 3, 3, 3, 3, 3, 3, 3, 3, 3, 3, 3, 3, 3, 3, 3, 3, 3, 3, 3, 3, 3, 3, 3, 3, 3, 3, 3, 3, 3, 3, 3, 3, 3, 3, 3, 3, 3, 3, 3, 3, 3, 3, 3, 3, 3, 3, 3, 3, 3, 3, 3, 3, 3, 3, 3, 3, 3, 3, 3, 3, 3, 3, 3, 3, 3, 3, 3, 3, 3, 3, 3, 3, 3, 3, 3, 3, 3, 3, 3, 3, 3, 3, 3, 3, 3, 3, 3, 3, 3, 3, 3, 3, 3, 3, 3, 3, 3, 3, 3, 3, 3, 3, 3, 3, 3, 3, 3, 3, 3, 3, 3, 3, 3, 3, 3, 3, 3, 3, 3, 3, 3, 3, 3, 3, 3, 3, 3, 3, 3, 3, 3, 3, 3, 3, 3, 3, 3, 3, 3, 3, 3, 3, 3, 3, 3, 3, 3, 3, 3, 3, 3, 3, 3, 3, 3, 3, 3, 3, 3, 3, 3, 3, 3, 3, 3, 3, 3, 3, 3, 3, 3, 3, 3, 3, 3, 3, 3, 3, 3, 3, 3, 3, 3, 3, 3, 3, 3, 3, 3, 3, 3, 3, 3, 3, 3, 3, 3, 3, 3, 3, 3, 3, 3, 3, 3, 3, 3, 3, 3, 3, 3, 3, 3, 3, 3, 3, 3, 3, 3, 3, 3, 3, 3, 3, 3, 3, 3, 3, 3, 3, 3, 3, 3, 3, 3, 3, 3, 3, 3, 3, 3, 3, 3, 3, 3, 3, 3, 3, 3, 3, 3, 3, 3, 3, 3, 3, 3, 3, 3, 3, 3, 3, 3, 3, 3, 3, 3, 3, 3, 3, 3, 3, 3, 3, 3, 3, 3, 3, 3, 3, 3, 3, 3, 3, 3, 3, 3, 3, 3, 3, 3, 3, 3, 3, 3, 3, 3, 3, 3, 3, 3, 3, 3, 3, 3, 3, 3, 3, 3, 3, 3, 3, 3, 3, 3, 3, 3, 3, 3, 3, 3, 3, 3, 3, 3, 3, 3, 3, 3, 3, 3, 3, 3, 3, 3, 3, 3, 3, 3, 3, 3, 3, 3, 3, 3, 3, 3, 3, 3, 3, 3, 3, 3, 3, 3, 3, 3, 3, 3, 3, 3, 3, 3, 3, 3, 3, 3, 3, 3, 3, 3, 3, 3, 3, 3, 3, 3, 3, 3, 3, 3, 3, 3, 3, 3, 3, 3, 3, 3, 3, 3, 3, 3, 3, 3, 3, 3, 3, 3, 3, 3, 3, 3, 3, 3, 3, 3, 3, 3, 3, 3, 3, 3, 3, 3, 3, 3, 3, 3, 3, 3, 3, 3, 3, 3, 3, 3, 3, 3, 3, 3, 3, 3, 3, 3, 3, 3, 3, 3, 3, 3, 3, 3, 3, 3, 3, 3, 3, 3, 3, 3, 3, 3, 3, 3, 3, 3, 3, 3, 3, 3, 3, 3, 3, 3, 3, 3, 3, 3, 3, 3, 3, 3, 3, 3, 3, 3, 3, 3, 3, 3, 3, 3, 3, 3, 3, 3, 3, 3, 3, 3, 3, 3, 3, 3, 3, 3, 3, 3, 3, 3, 3, 3, 3, 3, 3, 3, 3, 3, 3, 3, 3, 3, 3, 3, 3, 3, 3, 3, 3, 3, 3, 3, 3, 3, 3, 3, 3, 3, 3, 3, 3, 3, 3, 3, 3, 3, 3, 3, 3, 3, 3, 3, 3, 3, 3, 3, 3, 3, 3, 3, 3, 3, 3, 3, 3, 3, 3, 3, 3, 3, 3, 3, 3, 3, 3, 3, 3, 3, 3, 3, 3, 3, 3, 3, 3, 3, 3, 3, 3, 3, 3, 3, 3, 3, 3, 3, 3, 3, 3, 3, 3, 3, 3, 3, 3, 3, 3, 3, 3, 3, 3, 3, 3, 3, 3, 3, 3, 3, 3, 3, 3, 3, 3, 3, 3, 3, 3, 3, 3, 3, 3, 3, 3, 3, 3, 3, 3, 3, 3, 3, 3, 3, 3, 3, 3, 3, 3, 3, 3, 3, 3, 3, 3, 3, 3, 3, 3, 3, 3, 3, 3, 3, 3, 3, 3, 3, 3, 3, 3, 3, 3, 3, 3, 3, 3, 3, 3, 3, 3, 3, 3, 3, 3, 3, 3, 3, 3, 3, 3, 3, 3, 3, 3, 3, 3, 3, 3, 3, 3, 3, 3, 3, 3, 3, 3, 3, 3, 3, 3, 3, 3, 3, 3, 3, 3, 3, 3, 3, 3, 3, 3, 3, 3, 3, 3, 3, 3, 3, 3, 3, 3, 3, 3, 3, 3, 3, 3, 3, 3, 3, 3, 3, 3, 3, 3]
            int[] faceVertexIndices = [0, 1, 2, 0, 2, 3, 4, 5, 6, 4, 6, 7, 8, 0, 3, 8, 3, 9, 10, 4, 7, 10, 7, 11, 12, 8, 9, 12, 9, 13, 14, 10, 11, 14, 11, 15, 16, 17, 18, 19, 12, 13, 20, 14, 15, 20, 15, 21, 22, 16, 18, 22, 18, 23, 24, 20, 21, 24, 21, 25, 26, 22, 23, 26, 23, 27, 28, 24, 25, 28, 25, 29, 30, 26, 27, 30, 27, 31, 1, 28, 29, 1, 29, 2, 5, 30, 31, 5, 31, 6, 2, 29, 32, 2, 32, 33, 6, 31, 34, 6, 34, 35, 3, 2, 33, 3, 33, 36, 7, 6, 35, 7, 35, 37, 9, 3, 36, 9, 36, 38, 11, 7, 37, 11, 37, 39, 13, 9, 38, 13, 38, 40, 15, 11, 39, 15, 39, 41, 18, 17, 42, 19, 13, 40, 21, 15, 41, 21, 41, 43, 23, 18, 42, 23, 42, 44, 25, 21, 43, 25, 43, 45, 27, 23, 44, 27, 44, 46, 29, 25, 45, 29, 45, 32, 31, 27, 46, 31, 46, 34, 42, 17, 47, 19, 40, 48, 43, 41, 49, 43, 49, 50, 44, 42, 47, 44, 47, 51, 45, 43, 50, 45, 50, 52, 46, 44, 51, 46, 51, 53, 32, 45, 52, 32, 52, 54, 34, 46, 53, 34, 53, 55, 33, 32, 54, 33, 54, 56, 35, 34, 55, 35, 55, 57, 36, 33, 56, 36, 56, 58, 37, 35, 57, 37, 57, 59, 38, 36, 58, 38, 58, 60, 39, 37, 59, 39, 59, 61, 40, 38, 60, 40, 60, 48, 41, 39, 61, 41, 61, 49, 57, 55, 62, 57, 62, 63, 58, 56, 64, 58, 64, 65, 59, 57, 63, 59, 63, 66, 60, 58, 65, 60, 65, 67, 61, 59, 66, 61, 66, 68, 48, 60, 67, 48, 67, 69, 49, 61, 68, 49, 68, 70, 47, 17, 71, 19, 48, 69, 50, 49, 70, 50, 70, 72, 51, 47, 71, 51, 71, 73, 52, 50, 72, 52, 72, 74, 53, 51, 73, 53, 73, 75, 54, 52, 74, 54, 74, 76, 55, 53, 75, 55, 75, 62, 56, 54, 76, 56, 76, 64, 72, 70, 77, 72, 77, 78, 73, 71, 79, 73, 79, 80, 74, 72, 78, 74, 78, 81, 75, 73, 80, 75, 80, 82, 76, 74, 81, 76, 81, 83, 62, 75, 82, 62, 82, 84, 64, 76, 83, 64, 83, 85, 63, 62, 84, 63, 84, 86, 65, 64, 85, 65, 85, 87, 66, 63, 86, 66, 86, 88, 67, 65, 87, 67, 87, 89, 68, 66, 88, 68, 88, 90, 69, 67, 89, 69, 89, 91, 70, 68, 90, 70, 90, 77, 71, 17, 79, 19, 69, 91, 87, 85, 92, 87, 92, 93, 88, 86, 94, 88, 94, 95, 89, 87, 93, 89, 93, 96, 90, 88, 95, 90, 95, 97, 91, 89, 96, 91, 96, 98, 77, 90, 97, 77, 97, 99, 79, 17, 100, 19, 91, 98, 78, 77, 99, 78, 99, 101, 80, 79, 100, 80, 100, 102, 81, 78, 101, 81, 101, 103, 82, 80, 102, 82, 102, 104, 83, 81, 103, 83, 103, 105, 84, 82, 104, 84, 104, 106, 85, 83, 105, 85, 105, 92, 86, 84, 106, 86, 106, 94, 102, 100, 107, 102, 107, 108, 103, 101, 109, 103, 109, 110, 104, 102, 108, 104, 108, 111, 105, 103, 110, 105, 110, 112, 106, 104, 111, 106, 111, 113, 92, 105, 112, 92, 112, 114, 94, 106, 113, 94, 113, 115, 93, 92, 114, 93, 114, 116, 95, 94, 115, 95, 115, 117, 96, 93, 116, 96, 116, 118, 97, 95, 117, 97, 117, 119, 98, 96, 118, 98, 118, 120, 99, 97, 119, 99, 119, 121, 100, 17, 107, 19, 98, 120, 101, 99, 121, 101, 121, 109, 117, 115, 122, 117, 122, 123, 118, 116, 124, 118, 124, 125, 119, 117, 123, 119, 123, 126, 120, 118, 125, 120, 125, 127, 121, 119, 126, 121, 126, 128, 107, 17, 129, 19, 120, 127, 109, 121, 128, 109, 128, 130, 108, 107, 129, 108, 129, 131, 110, 109, 130, 110, 130, 132, 111, 108, 131, 111, 131, 133, 112, 110, 132, 112, 132, 134, 113, 111, 133, 113, 133, 135, 114, 112, 134, 114, 134, 136, 115, 113, 135, 115, 135, 122, 116, 114, 136, 116, 136, 124, 132, 130, 137, 132, 137, 138, 133, 131, 139, 133, 139, 140, 134, 132, 138, 134, 138, 141, 135, 133, 140, 135, 140, 142, 136, 134, 141, 136, 141, 143, 122, 135, 142, 122, 142, 144, 124, 136, 143, 124, 143, 145, 123, 122, 144, 123, 144, 146, 125, 124, 145, 125, 145, 147, 126, 123, 146, 126, 146, 148, 127, 125, 147, 127, 147, 149, 128, 126, 148, 128, 148, 150, 129, 17, 151, 19, 127, 149, 130, 128, 150, 130, 150, 137, 131, 129, 151, 131, 151, 139, 147, 145, 152, 147, 152, 153, 148, 146, 154, 148, 154, 155, 149, 147, 153, 149, 153, 156, 150, 148, 155, 150, 155, 157, 151, 17, 158, 19, 149, 156, 137, 150, 157, 137, 157, 159, 139, 151, 158, 139, 158, 160, 138, 137, 159, 138, 159, 161, 140, 139, 160, 140, 160, 162, 141, 138, 161, 141, 161, 163, 142, 140, 162, 142, 162, 164, 143, 141, 163, 143, 163, 165, 144, 142, 164, 144, 164, 166, 145, 143, 165, 145, 165, 152, 146, 144, 166, 146, 166, 154, 163, 161, 167, 163, 167, 168, 164, 162, 169, 164, 169, 170, 165, 163, 168, 165, 168, 171, 166, 164, 170, 166, 170, 172, 152, 165, 171, 152, 171, 173, 154, 166, 172, 154, 172, 174, 153, 152, 173, 153, 173, 175, 155, 154, 174, 155, 174, 176, 156, 153, 175, 156, 175, 177, 157, 155, 176, 157, 176, 178, 158, 17, 179, 19, 156, 177, 159, 157, 178, 159, 178, 180, 160, 158, 179, 160, 179, 181, 161, 159, 180, 161, 180, 167, 162, 160, 181, 162, 181, 169, 177, 175, 182, 177, 182, 183, 178, 176, 184, 178, 184, 185, 179, 17, 186, 19, 177, 183, 180, 178, 185, 180, 185, 187, 181, 179, 186, 181, 186, 188, 167, 180, 187, 167, 187, 189, 169, 181, 188, 169, 188, 190, 168, 167, 189, 168, 189, 191, 170, 169, 190, 170, 190, 192, 171, 168, 191, 171, 191, 193, 172, 170, 192, 172, 192, 194, 173, 171, 193, 173, 193, 195, 174, 172, 194, 174, 194, 196, 175, 173, 195, 175, 195, 182, 176, 174, 196, 176, 196, 184, 192, 190, 197, 192, 197, 198, 193, 191, 199, 193, 199, 200, 194, 192, 198, 194, 198, 201, 195, 193, 200, 195, 200, 202, 196, 194, 201, 196, 201, 203, 182, 195, 202, 182, 202, 204, 184, 196, 203, 184, 203, 205, 183, 182, 204, 183, 204, 206, 185, 184, 205, 185, 205, 207, 186, 17, 208, 19, 183, 206, 187, 185, 207, 187, 207, 209, 188, 186, 208, 188, 208, 210, 189, 187, 209, 189, 209, 211, 190, 188, 210, 190, 210, 197, 191, 189, 211, 191, 211, 199, 207, 205, 212, 207, 212, 213, 208, 17, 214, 19, 206, 215, 209, 207, 213, 209, 213, 216, 210, 208, 214, 210, 214, 217, 211, 209, 216, 211, 216, 218, 197, 210, 217, 197, 217, 219, 199, 211, 218, 199, 218, 220, 198, 197, 219, 198, 219, 221, 200, 199, 220, 200, 220, 222, 201, 198, 221, 201, 221, 223, 202, 200, 222, 202, 222, 224, 203, 201, 223, 203, 223, 225, 204, 202, 224, 204, 224, 226, 205, 203, 225, 205, 225, 212, 206, 204, 226, 206, 226, 215, 222, 220, 227, 222, 227, 228, 223, 221, 229, 223, 229, 230, 224, 222, 228, 224, 228, 231, 225, 223, 230, 225, 230, 232, 226, 224, 231, 226, 231, 233, 212, 225, 232, 212, 232, 234, 215, 226, 233, 215, 233, 235, 213, 212, 234, 213, 234, 236, 214, 17, 237, 19, 215, 235, 216, 213, 236, 216, 236, 238, 217, 214, 237, 217, 237, 239, 218, 216, 238, 218, 238, 240, 219, 217, 239, 219, 239, 241, 220, 218, 240, 220, 240, 227, 221, 219, 241, 221, 241, 229, 237, 17, 242, 19, 235, 243, 238, 236, 244, 238, 244, 245, 239, 237, 242, 239, 242, 246, 240, 238, 245, 240, 245, 247, 241, 239, 246, 241, 246, 248, 227, 240, 247, 227, 247, 249, 229, 241, 248, 229, 248, 250, 228, 227, 249, 228, 249, 251, 230, 229, 250, 230, 250, 252, 231, 228, 251, 231, 251, 253, 232, 230, 252, 232, 252, 254, 233, 231, 253, 233, 253, 255, 234, 232, 254, 234, 254, 256, 235, 233, 255, 235, 255, 243, 236, 234, 256, 236, 256, 244, 252, 250, 257, 252, 257, 258, 253, 251, 259, 253, 259, 260, 254, 252, 258, 254, 258, 261, 255, 253, 260, 255, 260, 262, 256, 254, 261, 256, 261, 263, 243, 255, 262, 243, 262, 264, 244, 256, 263, 244, 263, 265, 242, 17, 266, 19, 243, 264, 245, 244, 265, 245, 265, 267, 246, 242, 266, 246, 266, 268, 247, 245, 267, 247, 267, 269, 248, 246, 268, 248, 268, 270, 249, 247, 269, 249, 269, 271, 250, 248, 270, 250, 270, 257, 251, 249, 271, 251, 271, 259, 267, 265, 272, 267, 272, 273, 268, 266, 274, 268, 274, 275, 269, 267, 273, 269, 273, 276, 270, 268, 275, 270, 275, 277, 271, 269, 276, 271, 276, 278, 257, 270, 277, 257, 277, 279, 259, 271, 278, 259, 278, 280, 258, 257, 279, 258, 279, 281, 260, 259, 280, 260, 280, 282, 261, 258, 281, 261, 281, 283, 262, 260, 282, 262, 282, 284, 263, 261, 283, 263, 283, 285, 264, 262, 284, 264, 284, 286, 265, 263, 285, 265, 285, 272, 266, 17, 274, 19, 264, 286, 282, 280, 287, 282, 287, 288, 283, 281, 289, 283, 289, 290, 284, 282, 288, 284, 288, 291, 285, 283, 290, 285, 290, 292, 286, 284, 291, 286, 291, 293, 272, 285, 292, 272, 292, 294, 274, 17, 295, 19, 286, 293, 273, 272, 294, 273, 294, 296, 275, 274, 295, 275, 295, 297, 276, 273, 296, 276, 296, 298, 277, 275, 297, 277, 297, 299, 278, 276, 298, 278, 298, 300, 279, 277, 299, 279, 299, 301, 280, 278, 300, 280, 300, 287, 281, 279, 301, 281, 301, 289, 298, 296, 302, 298, 302, 303, 299, 297, 304, 299, 304, 305, 300, 298, 303, 300, 303, 306, 301, 299, 305, 301, 305, 307, 287, 300, 306, 287, 306, 308, 289, 301, 307, 289, 307, 309, 288, 287, 308, 288, 308, 310, 290, 289, 309, 290, 309, 311, 291, 288, 310, 291, 310, 312, 292, 290, 311, 292, 311, 313, 293, 291, 312, 293, 312, 314, 294, 292, 313, 294, 313, 315, 295, 17, 316, 19, 293, 314, 296, 294, 315, 296, 315, 302, 297, 295, 316, 297, 316, 304, 312, 310, 317, 312, 317, 318, 313, 311, 319, 313, 319, 320, 314, 312, 318, 314, 318, 321, 315, 313, 320, 315, 320, 322, 316, 17, 323, 19, 314, 321, 302, 315, 322, 302, 322, 324, 304, 316, 323, 304, 323, 325, 303, 302, 324, 303, 324, 326, 305, 304, 325, 305, 325, 327, 306, 303, 326, 306, 326, 328, 307, 305, 327, 307, 327, 329, 308, 306, 328, 308, 328, 330, 309, 307, 329, 309, 329, 331, 310, 308, 330, 310, 330, 317, 311, 309, 331, 311, 331, 319, 327, 325, 332, 327, 332, 333, 328, 326, 334, 328, 334, 335, 329, 327, 333, 329, 333, 336, 330, 328, 335, 330, 335, 337, 331, 329, 336, 331, 336, 338, 317, 330, 337, 317, 337, 339, 319, 331, 338, 319, 338, 340, 318, 317, 339, 318, 339, 341, 320, 319, 340, 320, 340, 342, 321, 318, 341, 321, 341, 343, 322, 320, 342, 322, 342, 344, 323, 17, 345, 19, 321, 343, 324, 322, 344, 324, 344, 346, 325, 323, 345, 325, 345, 332, 326, 324, 346, 326, 346, 334, 342, 340, 347, 342, 347, 348, 343, 341, 349, 343, 349, 350, 344, 342, 348, 344, 348, 351, 345, 17, 352, 19, 343, 350, 346, 344, 351, 346, 351, 353, 332, 345, 352, 332, 352, 354, 334, 346, 353, 334, 353, 355, 333, 332, 354, 333, 354, 356, 335, 334, 355, 335, 355, 357, 336, 333, 356, 336, 356, 358, 337, 335, 357, 337, 357, 359, 338, 336, 358, 338, 358, 360, 339, 337, 359, 339, 359, 361, 340, 338, 360, 340, 360, 347, 341, 339, 361, 341, 361, 349, 357, 355, 362, 357, 362, 363, 358, 356, 364, 358, 364, 365, 359, 357, 363, 359, 363, 366, 360, 358, 365, 360, 365, 367, 361, 359, 366, 361, 366, 368, 347, 360, 367, 347, 367, 369, 349, 361, 368, 349, 368, 370, 348, 347, 369, 348, 369, 371, 350, 349, 370, 350, 370, 372, 351, 348, 371, 351, 371, 373, 352, 17, 374, 19, 350, 372, 353, 351, 373, 353, 373, 375, 354, 352, 374, 354, 374, 376, 355, 353, 375, 355, 375, 362, 356, 354, 376, 356, 376, 364, 372, 370, 377, 372, 377, 378, 373, 371, 379, 373, 379, 380, 374, 17, 381, 19, 372, 378, 375, 373, 380, 375, 380, 382, 376, 374, 381, 376, 381, 383, 362, 375, 382, 362, 382, 384, 364, 376, 383, 364, 383, 385, 363, 362, 384, 363, 384, 386, 365, 364, 385, 365, 385, 387, 366, 363, 386, 366, 386, 388, 367, 365, 387, 367, 387, 389, 368, 366, 388, 368, 388, 390, 369, 367, 389, 369, 389, 391, 370, 368, 390, 370, 390, 377, 371, 369, 391, 371, 391, 379, 387, 385, 392, 387, 392, 393, 388, 386, 394, 388, 394, 395, 389, 387, 393, 389, 393, 396, 390, 388, 395, 390, 395, 397, 391, 389, 396, 391, 396, 398, 377, 390, 397, 377, 397, 399, 379, 391, 398, 379, 398, 400, 378, 377, 399, 378, 399, 401, 380, 379, 400, 380, 400, 402, 381, 17, 403, 19, 378, 401, 382, 380, 402, 382, 402, 404, 383, 381, 403, 383, 403, 405, 384, 382, 404, 384, 404, 406, 385, 383, 405, 385, 405, 392, 386, 384, 406, 386, 406, 394, 402, 400, 407, 402, 407, 408, 403, 17, 409, 19, 401, 410, 404, 402, 408, 404, 408, 411, 405, 403, 409, 405, 409, 412, 406, 404, 411, 406, 411, 413, 392, 405, 412, 392, 412, 414, 394, 406, 413, 394, 413, 415, 393, 392, 414, 393, 414, 416, 395, 394, 415, 395, 415, 417, 396, 393, 416, 396, 416, 418, 397, 395, 417, 397, 417, 419, 398, 396, 418, 398, 418, 420, 399, 397, 419, 399, 419, 421, 400, 398, 420, 400, 420, 407, 401, 399, 421, 401, 421, 410, 417, 415, 422, 417, 422, 423, 418, 416, 424, 418, 424, 425, 419, 417, 423, 419, 423, 426, 420, 418, 425, 420, 425, 427, 421, 419, 426, 421, 426, 428, 407, 420, 427, 407, 427, 429, 410, 421, 428, 410, 428, 430, 408, 407, 429, 408, 429, 431, 409, 17, 432, 19, 410, 430, 411, 408, 431, 411, 431, 433, 412, 409, 432, 412, 432, 434, 413, 411, 433, 413, 433, 435, 414, 412, 434, 414, 434, 436, 415, 413, 435, 415, 435, 422, 416, 414, 436, 416, 436, 424, 19, 430, 437, 433, 431, 438, 433, 438, 439, 434, 432, 440, 434, 440, 441, 435, 433, 439, 435, 439, 442, 436, 434, 441, 436, 441, 443, 422, 435, 442, 422, 442, 444, 424, 436, 443, 424, 443, 445, 423, 422, 444, 423, 444, 446, 425, 424, 445, 425, 445, 447, 426, 423, 446, 426, 446, 448, 427, 425, 447, 427, 447, 449, 428, 426, 448, 428, 448, 450, 429, 427, 449, 429, 449, 451, 430, 428, 450, 430, 450, 437, 431, 429, 451, 431, 451, 438, 432, 17, 440, 448, 446, 452, 448, 452, 453, 449, 447, 454, 449, 454, 455, 450, 448, 453, 450, 453, 456, 451, 449, 455, 451, 455, 457, 437, 450, 456, 437, 456, 458, 438, 451, 457, 438, 457, 459, 440, 17, 460, 19, 437, 458, 439, 438, 459, 439, 459, 461, 441, 440, 460, 441, 460, 462, 442, 439, 461, 442, 461, 463, 443, 441, 462, 443, 462, 464, 444, 442, 463, 444, 463, 465, 445, 443, 464, 445, 464, 466, 446, 444, 465, 446, 465, 452, 447, 445, 466, 447, 466, 454, 462, 460, 467, 462, 467, 468, 463, 461, 469, 463, 469, 470, 464, 462, 468, 464, 468, 471, 465, 463, 470, 465, 470, 472, 466, 464, 471, 466, 471, 473, 452, 465, 472, 452, 472, 474, 454, 466, 473, 454, 473, 475, 453, 452, 474, 453, 474, 476, 455, 454, 475, 455, 475, 477, 456, 453, 476, 456, 476, 478, 457, 455, 477, 457, 477, 479, 458, 456, 478, 458, 478, 480, 459, 457, 479, 459, 479, 481, 460, 17, 467, 19, 458, 480, 461, 459, 481, 461, 481, 469, 477, 475, 5, 477, 5, 4, 478, 476, 0, 478, 0, 8, 479, 477, 4, 479, 4, 10, 480, 478, 8, 480, 8, 12, 481, 479, 10, 481, 10, 14, 467, 17, 16, 19, 480, 12, 469, 481, 14, 469, 14, 20, 468, 467, 16, 468, 16, 22, 470, 469, 20, 470, 20, 24, 471, 468, 22, 471, 22, 26, 472, 470, 24, 472, 24, 28, 473, 471, 26, 473, 26, 30, 474, 472, 28, 474, 28, 1, 475, 473, 30, 475, 30, 5, 476, 474, 1, 476, 1, 0]
            point3f[] points = [(0, 0.055557, -0.083147), (0, 0.0707107, -0.0707107), (0.013795, 0.069352, -0.0707107), (0.0108386, 0.0544895, -0.083147), (0, 0.0923879, 0.0382683), (0, 0.083147, 0.055557), (0.0162212, 0.0815493, 0.055557), (0.018024, 0.0906127, 0.0382683), (0, 0.0382683, -0.092388), (0.0074658, 0.037533, -0.092388), (0, 0.0980785, 0.019509), (0.0191342, 0.096194, 0.019509), (0, 0.019509, -0.0980785), (0.003806, 0.0191342, -0.0980785), (0, 0.1, 0), (0.019509, 0.0980785, 0), (0, 0.019509, 0.0980785), (0, 0, 0.1), (0.003806, 0.0191342, 0.0980785), (0, 0, -0.1), (0, 0.0980785, -0.019509), (0.0191342, 0.096194, -0.019509), (0, 0.0382683, 0.092388), (0.0074658, 0.037533, 0.092388), (0, 0.0923879, -0.0382683), (0.018024, 0.0906127, -0.0382683), (0, 0.055557, 0.083147), (0.0108386, 0.0544895, 0.083147), (0, 0.083147, -0.055557), (0.0162212, 0.0815493, -0.055557), (0, 0.0707107, 0.0707107), (0.013795, 0.069352, 0.0707107), (0.031819, 0.0768178, -0.055557), (0.0270598, 0.0653281, -0.0707107), (0.0270598, 0.0653281, 0.0707107), (0.031819, 0.0768178, 0.055557), (0.0212608, 0.051328, -0.083147), (0.0353553, 0.0853553, 0.0382683), (0.0146447, 0.0353553, -0.092388), (0.037533, 0.0906127, 0.019509), (0.0074658, 0.018024, -0.0980785), (0.0382683, 0.0923879, 0), (0.0074658, 0.018024, 0.0980785), (0.037533, 0.0906127, -0.019509), (0.0146447, 0.0353553, 0.092388), (0.0353553, 0.0853553, -0.0382683), (0.0212608, 0.051328, 0.083147), (0.0108386, 0.0162212, 0.0980785), (0.0108386, 0.0162212, -0.0980785), (0.055557, 0.083147, 0), (0.0544895, 0.0815493, -0.019509), (0.0212608, 0.031819, 0.092388), (0.051328, 0.0768178, -0.0382683), (0.0308658, 0.046194, 0.083147), (0.046194, 0.0691342, -0.055557), (0.0392847, 0.0587938, 0.0707107), (0.0392847, 0.0587938, -0.0707107), (0.046194, 0.0691342, 0.055557), (0.0308658, 0.046194, -0.083147), (0.051328, 0.0768178, 0.0382683), (0.0212608, 0.031819, -0.092388), (0.0544895, 0.0815493, 0.019509), (0.05, 0.05, 0.0707107), (0.0587938, 0.0587938, 0.055557), (0.05, 0.05, -0.0707107), (0.0392847, 0.0392847, -0.083147), (0.0653281, 0.0653281, 0.0382683), (0.0270598, 0.0270598, -0.092388), (0.069352, 0.069352, 0.019509), (0.013795, 0.013795, -0.0980785), (0.0707107, 0.0707107, 0), (0.013795, 0.013795, 0.0980785), (0.069352, 0.069352, -0.019509), (0.0270598, 0.0270598, 0.092388), (0.0653281, 0.0653281, -0.0382683), (0.0392847, 0.0392847, 0.083147), (0.0587938, 0.0587938, -0.055557), (0.083147, 0.055557, 0), (0.0815493, 0.0544895, -0.019509), (0.0162212, 0.0108386, 0.0980785), (0.031819, 0.0212608, 0.092388), (0.0768178, 0.051328, -0.0382683), (0.046194, 0.0308658, 0.083147), (0.0691342, 0.046194, -0.055557), (0.0587938, 0.0392847, 0.0707107), (0.0587938, 0.0392847, -0.0707107), (0.0691342, 0.046194, 0.055557), (0.046194, 0.0308658, -0.083147), (0.0768178, 0.051328, 0.0382683), (0.031819, 0.0212608, -0.092388), (0.0815493, 0.0544895, 0.019509), (0.0162212, 0.0108386, -0.0980785), (0.0653281, 0.0270598, -0.0707107), (0.051328, 0.0212607, -0.083147), (0.0768178, 0.031819, 0.055557), (0.0853553, 0.0353553, 0.0382683), (0.0353553, 0.0146447, -0.092388), (0.0906127, 0.037533, 0.019509), (0.018024, 0.0074658, -0.0980785), (0.0923879, 0.0382683, 0), (0.018024, 0.0074658, 0.0980785), (0.0906127, 0.037533, -0.019509), (0.0353553, 0.0146447, 0.092388), (0.0853553, 0.0353553, -0.0382683), (0.051328, 0.0212607, 0.083147), (0.0768178, 0.031819, -0.055557), (0.0653281, 0.0270598, 0.0707107), (0.0191342, 0.003806, 0.0980785), (0.037533, 0.0074658, 0.092388), (0.096194, 0.0191342, -0.019509), (0.0906127, 0.018024, -0.0382683), (0.0544895, 0.0108386, 0.083147), (0.0815493, 0.0162212, -0.055557), (0.069352, 0.013795, 0.0707107), (0.069352, 0.013795, -0.0707107), (0.0815493, 0.0162212, 0.055557), (0.0544895, 0.0108386, -0.083147), (0.0906127, 0.018024, 0.0382683), (0.037533, 0.0074658, -0.092388), (0.096194, 0.0191342, 0.019509), (0.0191342, 0.003806, -0.0980785), (0.0980785, 0.019509, 0), (0.0831469, -0, 0.055557), (0.0923879, 0, 0.0382683), (0.055557, -0, -0.083147), (0.0382683, -0, -0.092388), (0.0980785, -0, 0.019509), (0.019509, -0, -0.0980785), (0.1, -0, 0), (0.019509, -0, 0.0980785), (0.0980785, -0, -0.019509), (0.0382683, -0, 0.092388), (0.0923879, 0, -0.0382683), (0.055557, -0, 0.083147), (0.0831469, -0, -0.055557), (0.0707107, 0, 0.0707107), (0.0707107, 0, -0.0707107), (0.096194, -0.0191342, -0.019509), (0.0906127, -0.018024, -0.0382683), (0.037533, -0.0074658, 0.092388), (0.0544895, -0.0108386, 0.083147), (0.0815493, -0.0162212, -0.055557), (0.069352, -0.013795, 0.0707107), (0.069352, -0.013795, -0.0707107), (0.0815493, -0.0162212, 0.055557), (0.0544895, -0.0108386, -0.083147), (0.0906127, -0.018024, 0.0382683), (0.037533, -0.0074658, -0.092388), (0.096194, -0.0191342, 0.019509), (0.0191342, -0.003806, -0.0980785), (0.0980785, -0.019509, 0), (0.0191342, -0.003806, 0.0980785), (0.051328, -0.0212608, -0.083147), (0.0353553, -0.0146447, -0.092388), (0.0853553, -0.0353553, 0.0382683), (0.0906127, -0.037533, 0.019509), (0.018024, -0.0074658, -0.0980785), (0.0923879, -0.0382683, 0), (0.018024, -0.0074658, 0.0980785), (0.0906127, -0.037533, -0.019509), (0.0353553, -0.0146447, 0.092388), (0.0853553, -0.0353553, -0.0382683), (0.051328, -0.0212608, 0.083147), (0.0768178, -0.031819, -0.055557), (0.0653281, -0.0270598, 0.0707107), (0.0653281, -0.0270598, -0.0707107), (0.0768178, -0.031819, 0.055557), (0.0768178, -0.051328, -0.0382683), (0.0691341, -0.046194, -0.055557), (0.046194, -0.0308658, 0.083147), (0.0587938, -0.0392847, 0.0707107), (0.0587938, -0.0392847, -0.0707107), (0.0691341, -0.046194, 0.055557), (0.046194, -0.0308658, -0.083147), (0.0768178, -0.051328, 0.0382683), (0.031819, -0.0212608, -0.092388), (0.0815493, -0.0544895, 0.019509), (0.0162212, -0.0108386, -0.0980785), (0.0831469, -0.055557, 0), (0.0162212, -0.0108386, 0.0980785), (0.0815493, -0.0544895, -0.019509), (0.031819, -0.0212608, 0.092388), (0.0270598, -0.0270598, -0.092388), (0.013795, -0.013795, -0.0980785), (0.069352, -0.069352, 0.019509), (0.0707106, -0.0707107, 0), (0.013795, -0.013795, 0.0980785), (0.069352, -0.069352, -0.019509), (0.0270598, -0.0270598, 0.092388), (0.0653281, -0.0653281, -0.0382683), (0.0392847, -0.0392847, 0.083147), (0.0587938, -0.0587938, -0.055557), (0.05, -0.05, 0.0707107), (0.05, -0.05, -0.0707107), (0.0587938, -0.0587938, 0.055557), (0.0392847, -0.0392847, -0.083147), (0.0653281, -0.0653281, 0.0382683), (0.0308658, -0.046194, 0.083147), (0.0392847, -0.0587938, 0.0707107), (0.046194, -0.0691342, -0.055557), (0.0392847, -0.0587938, -0.0707107), (0.046194, -0.0691342, 0.055557), (0.0308658, -0.046194, -0.083147), (0.051328, -0.0768178, 0.0382683), (0.0212607, -0.031819, -0.092388), (0.0544895, -0.0815493, 0.019509), (0.0108386, -0.0162212, -0.0980785), (0.055557, -0.0831469, 0), (0.0108386, -0.0162212, 0.0980785), (0.0544895, -0.0815493, -0.019509), (0.0212607, -0.031819, 0.092388), (0.051328, -0.0768178, -0.0382683), (0.037533, -0.0906127, 0.019509), (0.0382683, -0.0923879, 0), (0.0074658, -0.018024, 0.0980785), (0.0074658, -0.018024, -0.0980785), (0.037533, -0.0906127, -0.019509), (0.0146447, -0.0353553, 0.092388), (0.0353553, -0.0853553, -0.0382683), (0.0212607, -0.051328, 0.083147), (0.0318189, -0.0768178, -0.055557), (0.0270598, -0.0653281, 0.0707107), (0.0270598, -0.0653281, -0.0707107), (0.0318189, -0.0768178, 0.055557), (0.0212607, -0.051328, -0.083147), (0.0353553, -0.0853553, 0.0382683), (0.0146447, -0.0353553, -0.092388), (0.0162212, -0.0815493, -0.055557), (0.013795, -0.069352, -0.0707107), (0.013795, -0.069352, 0.0707107), (0.0162212, -0.0815493, 0.055557), (0.0108386, -0.0544895, -0.083147), (0.018024, -0.0906127, 0.0382683), (0.0074658, -0.037533, -0.092388), (0.0191342, -0.0961939, 0.019509), (0.003806, -0.0191342, -0.0980785), (0.019509, -0.0980785, 0), (0.003806, -0.0191342, 0.0980785), (0.0191342, -0.0961939, -0.019509), (0.0074658, -0.037533, 0.092388), (0.018024, -0.0906127, -0.0382683), (0.0108386, -0.0544895, 0.083147), (-0, -0.019509, 0.0980785), (-0, -0.019509, -0.0980785), (-0, -0.0999999, 0), (-0, -0.0980785, -0.019509), (-0, -0.0382683, 0.092388), (0, -0.0923879, -0.0382683), (-0, -0.055557, 0.083147), (-0, -0.0831469, -0.055557), (-0, -0.0707107, 0.0707107), (-0, -0.0707107, -0.0707107), (-0, -0.0831469, 0.055557), (-0, -0.055557, -0.083147), (0, -0.0923879, 0.0382683), (-0, -0.0382683, -0.092388), (-0, -0.0980785, 0.019509), (-0.013795, -0.069352, 0.0707107), (-0.0162212, -0.0815493, 0.055557), (-0.013795, -0.069352, -0.0707107), (-0.0108386, -0.0544895, -0.083147), (-0.018024, -0.0906127, 0.0382683), (-0.0074658, -0.037533, -0.092388), (-0.0191342, -0.0961939, 0.019509), (-0.003806, -0.0191342, -0.0980785), (-0.0195091, -0.0980785, 0), (-0.003806, -0.0191342, 0.0980785), (-0.0191342, -0.0961939, -0.019509), (-0.0074658, -0.037533, 0.092388), (-0.018024, -0.0906127, -0.0382683), (-0.0108386, -0.0544895, 0.083147), (-0.0162212, -0.0815493, -0.055557), (-0.0382684, -0.0923879, 0), (-0.037533, -0.0906127, -0.019509), (-0.0074658, -0.018024, 0.0980785), (-0.0146447, -0.0353553, 0.092388), (-0.0353553, -0.0853553, -0.0382683), (-0.0212608, -0.051328, 0.083147), (-0.031819, -0.0768177, -0.055557), (-0.0270598, -0.0653281, 0.0707107), (-0.0270598, -0.0653281, -0.0707107), (-0.031819, -0.0768177, 0.055557), (-0.0212608, -0.051328, -0.083147), (-0.0353553, -0.0853553, 0.0382683), (-0.0146447, -0.0353553, -0.092388), (-0.037533, -0.0906127, 0.019509), (-0.0074658, -0.018024, -0.0980785), (-0.0392847, -0.0587938, -0.0707107), (-0.0308658, -0.0461939, -0.083147), (-0.046194, -0.0691341, 0.055557), (-0.051328, -0.0768178, 0.0382683), (-0.0212608, -0.031819, -0.092388), (-0.0544895, -0.0815493, 0.019509), (-0.0108386, -0.0162212, -0.0980785), (-0.055557, -0.0831469, 0), (-0.0108386, -0.0162212, 0.0980785), (-0.0544895, -0.0815493, -0.019509), (-0.0212608, -0.031819, 0.092388), (-0.051328, -0.0768178, -0.0382683), (-0.0308658, -0.0461939, 0.083147), (-0.046194, -0.0691341, -0.055557), (-0.0392847, -0.0587938, 0.0707107), (-0.069352, -0.069352, -0.019509), (-0.0653281, -0.0653281, -0.0382683), (-0.0270598, -0.0270598, 0.092388), (-0.0392847, -0.0392847, 0.083147), (-0.0587938, -0.0587937, -0.055557), (-0.05, -0.05, 0.0707107), (-0.05, -0.05, -0.0707107), (-0.0587938, -0.0587937, 0.055557), (-0.0392847, -0.0392847, -0.083147), (-0.0653281, -0.0653281, 0.0382683), (-0.0270598, -0.0270598, -0.092388), (-0.069352, -0.069352, 0.019509), (-0.013795, -0.013795, -0.0980785), (-0.0707107, -0.0707106, 0), (-0.013795, -0.013795, 0.0980785), (-0.046194, -0.0308658, -0.083147), (-0.031819, -0.0212607, -0.092388), (-0.0768177, -0.051328, 0.0382683), (-0.0815493, -0.0544895, 0.019509), (-0.0162212, -0.0108386, -0.0980785), (-0.0831469, -0.0555569, 0), (-0.0162212, -0.0108386, 0.0980785), (-0.0815493, -0.0544895, -0.019509), (-0.031819, -0.0212607, 0.092388), (-0.0768177, -0.051328, -0.0382683), (-0.046194, -0.0308658, 0.083147), (-0.0691341, -0.0461939, -0.055557), (-0.0587938, -0.0392847, 0.0707107), (-0.0587938, -0.0392847, -0.0707107), (-0.0691341, -0.0461939, 0.055557), (-0.0353553, -0.0146447, 0.092388), (-0.051328, -0.0212607, 0.083147), (-0.0853553, -0.0353553, -0.0382683), (-0.0768177, -0.0318189, -0.055557), (-0.0653281, -0.0270598, 0.0707107), (-0.0653281, -0.0270598, -0.0707107), (-0.0768177, -0.0318189, 0.055557), (-0.051328, -0.0212607, -0.083147), (-0.0853553, -0.0353553, 0.0382683), (-0.0353553, -0.0146447, -0.092388), (-0.0906127, -0.037533, 0.019509), (-0.018024, -0.0074658, -0.0980785), (-0.0923879, -0.0382683, 0), (-0.018024, -0.0074658, 0.0980785), (-0.0906127, -0.037533, -0.019509), (-0.0906127, -0.018024, 0.0382683), (-0.0961939, -0.0191341, 0.019509), (-0.037533, -0.0074658, -0.092388), (-0.0191342, -0.003806, -0.0980785), (-0.0980784, -0.019509, 0), (-0.0191342, -0.003806, 0.0980785), (-0.0961939, -0.0191341, -0.019509), (-0.037533, -0.0074658, 0.092388), (-0.0906127, -0.018024, -0.0382683), (-0.0544895, -0.0108386, 0.083147), (-0.0815493, -0.0162211, -0.055557), (-0.069352, -0.013795, 0.0707107), (-0.069352, -0.013795, -0.0707107), (-0.0815493, -0.0162211, 0.055557), (-0.0544895, -0.0108386, -0.083147), (-0.0923879, 0, -0.0382683), (-0.0831469, 0, -0.055557), (-0.055557, 0, 0.083147), (-0.0707107, 0, 0.0707107), (-0.0707107, 0, -0.0707107), (-0.0831469, 0, 0.055557), (-0.055557, 0, -0.083147), (-0.0923879, 0, 0.0382683), (-0.0382683, 0, -0.092388), (-0.0980785, 0, 0.019509), (-0.019509, 0, -0.0980785), (-0.0999999, 0, 0), (-0.019509, 0, 0.0980785), (-0.0980785, 0, -0.019509), (-0.0382683, 0, 0.092388), (-0.037533, 0.0074658, -0.092388), (-0.0191342, 0.003806, -0.0980785), (-0.0961939, 0.0191342, 0.019509), (-0.0980784, 0.0195091, 0), (-0.0191342, 0.003806, 0.0980785), (-0.0961939, 0.0191342, -0.019509), (-0.037533, 0.0074658, 0.092388), (-0.0906127, 0.018024, -0.0382683), (-0.0544895, 0.0108386, 0.083147), (-0.0815493, 0.0162212, -0.055557), (-0.069352, 0.013795, 0.0707107), (-0.069352, 0.013795, -0.0707107), (-0.0815493, 0.0162212, 0.055557), (-0.0544895, 0.0108386, -0.083147), (-0.0906127, 0.018024, 0.0382683), (-0.0513279, 0.0212607, 0.083147), (-0.0653281, 0.0270598, 0.0707107), (-0.0768177, 0.031819, -0.055557), (-0.0653281, 0.0270598, -0.0707107), (-0.0768177, 0.031819, 0.055557), (-0.0513279, 0.0212607, -0.083147), (-0.0853553, 0.0353553, 0.0382683), (-0.0353553, 0.0146447, -0.092388), (-0.0906127, 0.037533, 0.019509), (-0.018024, 0.0074658, -0.0980785), (-0.0923878, 0.0382684, 0), (-0.018024, 0.0074658, 0.0980785), (-0.0906127, 0.037533, -0.019509), (-0.0353553, 0.0146447, 0.092388), (-0.0853553, 0.0353553, -0.0382683), (-0.0815493, 0.0544895, 0.019509), (-0.0831468, 0.055557, 0), (-0.0162212, 0.0108386, 0.0980785), (-0.0162212, 0.0108386, -0.0980785), (-0.0815493, 0.0544895, -0.019509), (-0.0318189, 0.0212607, 0.092388), (-0.0768177, 0.051328, -0.0382683), (-0.0461939, 0.0308658, 0.083147), (-0.0691341, 0.046194, -0.055557), (-0.0587938, 0.0392847, 0.0707107), (-0.0587938, 0.0392847, -0.0707107), (-0.0691341, 0.046194, 0.055557), (-0.0461939, 0.0308658, -0.083147), (-0.0768177, 0.051328, 0.0382683), (-0.0318189, 0.0212607, -0.092388), (-0.0587937, 0.0587938, -0.055557), (-0.05, 0.05, -0.0707107), (-0.05, 0.05, 0.0707107), (-0.0587937, 0.0587938, 0.055557), (-0.0392847, 0.0392847, -0.083147), (-0.0653281, 0.0653281, 0.0382683), (-0.0270598, 0.0270598, -0.092388), (-0.0693519, 0.069352, 0.019509), (-0.013795, 0.013795, -0.0980785), (-0.0707106, 0.0707106, 0), (-0.013795, 0.013795, 0.0980785), (-0.0693519, 0.069352, -0.019509), (-0.0270598, 0.0270598, 0.092388), (-0.0653281, 0.0653281, -0.0382683), (-0.0392847, 0.0392847, 0.083147), (-0.0108386, 0.0162212, -0.0980785), (-0.0555569, 0.0831469, 0), (-0.0544895, 0.0815493, -0.019509), (-0.0108386, 0.0162212, 0.0980785), (-0.0212607, 0.031819, 0.092388), (-0.051328, 0.0768177, -0.0382683), (-0.0308658, 0.0461939, 0.083147), (-0.0461939, 0.0691341, -0.055557), (-0.0392847, 0.0587938, 0.0707107), (-0.0392847, 0.0587938, -0.0707107), (-0.0461939, 0.0691341, 0.055557), (-0.0308658, 0.0461939, -0.083147), (-0.051328, 0.0768177, 0.0382683), (-0.0212607, 0.031819, -0.092388), (-0.0544895, 0.0815493, 0.019509), (-0.0270598, 0.0653281, -0.0707107), (-0.0212607, 0.051328, -0.083147), (-0.0318189, 0.0768177, 0.055557), (-0.0353553, 0.0853553, 0.0382683), (-0.0146446, 0.0353553, -0.092388), (-0.037533, 0.0906127, 0.019509), (-0.0074658, 0.018024, -0.0980785), (-0.0382683, 0.0923879, 0), (-0.0074658, 0.018024, 0.0980785), (-0.037533, 0.0906127, -0.019509), (-0.0146446, 0.0353553, 0.092388), (-0.0353553, 0.0853553, -0.0382683), (-0.0212607, 0.051328, 0.083147), (-0.0318189, 0.0768177, -0.055557), (-0.0270598, 0.0653281, 0.0707107), (-0.003806, 0.0191342, 0.0980785), (-0.0074658, 0.037533, 0.092388), (-0.0191341, 0.0961939, -0.019509), (-0.018024, 0.0906127, -0.0382683), (-0.0108386, 0.0544895, 0.083147), (-0.0162211, 0.0815493, -0.055557), (-0.013795, 0.069352, 0.0707107), (-0.013795, 0.069352, -0.0707107), (-0.0162211, 0.0815493, 0.055557), (-0.0108386, 0.0544895, -0.083147), (-0.018024, 0.0906127, 0.0382683), (-0.0074658, 0.037533, -0.092388), (-0.0191341, 0.0961939, 0.019509), (-0.003806, 0.0191342, -0.0980785), (-0.019509, 0.0980784, 0)]
            uniform token subdivisionScheme = "none"
        }
    }
    def Scope "collisions"
    {
        def Mesh "collision_0" (
            prepend apiSchemas = ["PhysicsCollisionAPI", "PhysicsMeshCollisionAPI"]
        )
        {
            uniform token physics:approximation = "convexHull"
            uniform token purpose = "guide"
            int[] faceVertexCounts = [3, 3, 3, 3, 3, 3, 3, 3, 3, 3, 3, 3, 3, 3, 3, 3, 3, 3, 3, 3, 3, 3, 3, 3, 3, 3, 3, 3, 3, 3, 3, 3, 3, 3, 3, 3, 3, 3, 3, 3, 3, 3, 3, 3, 3, 3, 3, 3, 3, 3, 3, 3, 3, 3, 3, 3, 3, 3, 3, 3, 3, 3, 3, 3, 3, 3, 3, 3, 3, 3, 3, 3, 3, 3, 3, 3, 3, 3, 3, 3, 3, 3, 3, 3, 3, 3, 3, 3, 3, 3, 3, 3, 3, 3, 3, 3, 3, 3, 3, 3, 3, 3, 3, 3, 3, 3, 3, 3, 3, 3, 3, 3, 3, 3, 3, 3, 3, 3, 3, 3, 3, 3, 3, 3, 3, 3, 3, 3, 3, 3, 3, 3, 3, 3, 3, 3, 3, 3, 3, 3, 3, 3, 3, 3, 3, 3, 3, 3, 3, 3, 3, 3, 3, 3, 3, 3, 3, 3, 3, 3, 3, 3, 3, 3, 3, 3, 3, 3, 3, 3, 3, 3, 3, 3, 3, 3, 3, 3, 3, 3, 3, 3, 3, 3, 3, 3, 3, 3, 3, 3, 3, 3, 3, 3, 3, 3, 3, 3, 3, 3, 3, 3, 3, 3, 3, 3, 3, 3, 3, 3, 3, 3, 3, 3, 3, 3, 3, 3, 3, 3, 3, 3, 3, 3, 3, 3, 3, 3, 3, 3, 3, 3, 3, 3, 3, 3, 3, 3, 3, 3, 3, 3, 3, 3, 3, 3, 3, 3, 3, 3, 3, 3, 3, 3, 3, 3, 3, 3, 3, 3, 3, 3, 3, 3, 3, 3, 3, 3, 3, 3, 3, 3, 3, 3, 3, 3, 3, 3, 3, 3, 3, 3, 3, 3, 3, 3, 3, 3, 3, 3, 3, 3, 3, 3, 3, 3, 3, 3, 3, 3, 3, 3, 3, 3, 3, 3, 3, 3, 3, 3, 3, 3, 3, 3, 3, 3, 3, 3, 3, 3, 3, 3, 3, 3, 3, 3, 3, 3, 3, 3, 3, 3, 3, 3, 3, 3, 3, 3, 3, 3, 3, 3, 3, 3, 3, 3, 3, 3, 3, 3, 3, 3, 3, 3, 3, 3, 3, 3, 3, 3, 3, 3, 3, 3, 3, 3, 3, 3, 3, 3, 3, 3, 3, 3, 3, 3, 3, 3, 3, 3, 3, 3, 3, 3, 3, 3, 3, 3, 3, 3, 3, 3, 3, 3, 3, 3, 3, 3, 3, 3, 3, 3, 3, 3, 3, 3, 3, 3, 3, 3, 3, 3, 3, 3, 3, 3, 3, 3, 3, 3, 3, 3, 3, 3, 3, 3, 3, 3, 3, 3, 3, 3, 3, 3, 3, 3, 3, 3, 3, 3, 3, 3, 3, 3, 3, 3, 3, 3, 3, 3, 3, 3, 3, 3, 3, 3, 3, 3, 3, 3, 3, 3, 3, 3, 3, 3, 3, 3, 3, 3, 3, 3, 3, 3, 3, 3, 3, 3, 3, 3, 3, 3, 3, 3, 3, 3, 3, 3, 3, 3, 3, 3, 3, 3, 3, 3, 3, 3, 3, 3, 3, 3, 3, 3, 3, 3, 3, 3, 3, 3, 3, 3, 3, 3, 3, 3, 3, 3, 3, 3, 3, 3, 3, 3, 3, 3, 3, 3, 3, 3, 3, 3, 3, 3, 3, 3, 3, 3, 3, 3, 3, 3, 3, 3, 3, 3, 3, 3, 3, 3, 3, 3, 3, 3, 3, 3, 3, 3, 3, 3, 3, 3, 3, 3, 3, 3, 3, 3, 3, 3, 3, 3, 3, 3, 3, 3, 3, 3, 3, 3, 3, 3, 3, 3, 3, 3, 3, 3, 3, 3, 3, 3, 3, 3, 3, 3, 3, 3, 3, 3, 3, 3, 3, 3, 3, 3, 3, 3, 3, 3, 3, 3, 3, 3, 3, 3, 3, 3, 3, 3, 3, 3, 3, 3, 3, 3, 3, 3, 3, 3, 3, 3, 3, 3, 3, 3, 3, 3, 3, 3, 3, 3, 3, 3, 3, 3, 3, 3, 3, 3, 3, 3, 3, 3, 3, 3, 3, 3, 3, 3, 3, 3, 3, 3, 3, 3, 3, 3, 3, 3, 3, 3, 3, 3, 3, 3, 3, 3, 3, 3, 3, 3, 3, 3, 3, 3, 3, 3, 3, 3, 3, 3, 3, 3, 3, 3, 3, 3, 3, 3, 3, 3, 3, 3, 3, 3, 3, 3, 3, 3, 3, 3, 3, 3, 3, 3, 3, 3, 3, 3, 3, 3, 3, 3, 3, 3, 3, 3, 3, 3, 3, 3, 3, 3, 3, 3, 3, 3, 3, 3, 3, 3, 3, 3, 3, 3, 3, 3, 3, 3, 3, 3, 3, 3, 3, 3, 3, 3, 3, 3, 3, 3, 3, 3, 3, 3, 3, 3, 3, 3, 3, 3, 3, 3, 3, 3, 3, 3, 3, 3, 3, 3, 3, 3, 3, 3, 3, 3, 3, 3, 3, 3, 3, 3, 3, 3, 3, 3, 3, 3, 3, 3, 3, 3, 3, 3, 3, 3, 3, 3, 3, 3, 3, 3, 3, 3, 3, 3, 3, 3, 3, 3, 3, 3, 3, 3, 3, 3, 3, 3, 3, 3, 3, 3, 3, 3, 3, 3, 3, 3, 3, 3, 3, 3, 3, 3, 3, 3, 3, 3, 3, 3, 3, 3, 3, 3, 3, 3, 3, 3, 3, 3, 3, 3, 3, 3, 3, 3, 3, 3, 3, 3, 3, 3, 3, 3, 3, 3, 3, 3, 3, 3, 3, 3, 3, 3, 3, 3, 3, 3, 3, 3, 3, 3, 3, 3, 3, 3, 3, 3, 3, 3, 3, 3, 3, 3, 3, 3, 3, 3, 3, 3, 3, 3, 3, 3, 3, 3, 3, 3, 3, 3, 3, 3, 3, 3, 3, 3, 3, 3, 3, 3, 3, 3, 3, 3, 3, 3, 3, 3, 3, 3, 3, 3, 3, 3, 3, 3, 3, 3, 3, 3, 3, 3, 3, 3, 3, 3, 3, 3]
            int[] faceVertexIndices = [0, 1, 2, 0, 2, 3, 4, 5, 6, 4, 6, 7, 8, 0, 3, 8, 3, 9, 10, 4, 7, 10, 7, 11, 12, 8, 9, 12, 9, 13, 14, 10, 11, 14, 11, 15, 16, 17, 18, 19, 12, 13, 20, 14, 15, 20, 15, 21, 22, 16, 18, 22, 18, 23, 24, 20, 21, 24, 21, 25, 26, 22, 23, 26, 23, 27, 28, 24, 25, 28, 25, 29, 30, 26, 27, 30, 27, 31, 1, 28, 29, 1, 29, 2, 5, 30, 31, 5, 31, 6, 2, 29, 32, 2, 32, 33, 6, 31, 34, 6, 34, 35, 3, 2, 33, 3, 33, 36, 7, 6, 35, 7, 35, 37, 9, 3, 36, 9, 36, 38, 11, 7, 37, 11, 37, 39, 13, 9, 38, 13, 38, 40, 15, 11, 39, 15, 39, 41, 18, 17, 42, 19, 13, 40, 21, 15, 41, 21, 41, 43, 23, 18, 42, 23, 42, 44, 25, 21, 43, 25, 43, 45, 27, 23, 44, 27, 44, 46, 29, 25, 45, 29, 45, 32, 31, 27, 46, 31, 46, 34, 42, 17, 47, 19, 40, 48, 43, 41, 49, 43, 49, 50, 44, 42, 47, 44, 47, 51, 45, 43, 50, 45, 50, 52, 46, 44, 51, 46, 51, 53, 32, 45, 52, 32, 52, 54, 34, 46, 53, 34, 53, 55, 33, 32, 54, 33, 54, 56, 35, 34, 55, 35, 55, 57, 36, 33, 56, 36, 56, 58, 37, 35, 57, 37, 57, 59, 38, 36, 58, 38, 58, 60, 39, 37, 59, 39, 59, 61, 40, 38, 60, 40, 60, 48, 41, 39, 61, 41, 61, 49, 57, 55, 62, 57, 62, 63, 58, 56, 64, 58, 64, 65, 59, 57, 63, 59, 63, 66, 60, 58, 65, 60, 65, 67, 61, 59, 66, 61, 66, 68, 48, 60, 67, 48, 67, 69, 49, 61, 68, 49, 68, 70, 47, 17, 71, 19, 48, 69, 50, 49, 70, 50, 70, 72, 51, 47, 71, 51, 71, 73, 52, 50, 72, 52, 72, 74, 53, 51, 73, 53, 73, 75, 54, 52, 74, 54, 74, 76, 55, 53, 75, 55, 75, 62, 56, 54, 76, 56, 76, 64, 72, 70, 77, 72, 77, 78, 73, 71, 79, 73, 79, 80, 74, 72, 78, 74, 78, 81, 75, 73, 80, 75, 80, 82, 76, 74, 81, 76, 81, 83, 62, 75, 82, 62, 82, 84, 64, 76, 83, 64, 83, 85, 63, 62, 84, 63, 84, 86, 65, 64, 85, 65, 85, 87, 66, 63, 86, 66, 86, 88, 67, 65, 87, 67, 87, 89, 68, 66, 88, 68, 88, 90, 69, 67, 89, 69, 89, 91, 70, 68, 90, 70, 90, 77, 71, 17, 79, 19, 69, 91, 87, 85, 92, 87, 92, 93, 88, 86, 94, 88, 94, 95, 89, 87, 93, 89, 93, 96, 90, 88, 95, 90, 95, 97, 91, 89, 96, 91, 96, 98, 77, 90, 97, 77, 97, 99, 79, 17, 100, 19, 91, 98, 78, 77, 99, 78, 99, 101, 80, 79, 100, 80, 100, 102, 81, 78, 101, 81, 101, 103, 82, 80, 102, 82, 102, 104, 83, 81, 103, 83, 103, 105, 84, 82, 104, 84, 104, 106, 85, 83, 105, 85, 105, 92, 86, 84, 106, 86, 106, 94, 102, 100, 107, 102, 107, 108, 103, 101, 109, 103, 109, 110, 104, 102, 108, 104, 108, 111, 105, 103, 110, 105, 110, 112, 106, 104, 111, 106, 111, 113, 92, 105, 112, 92, 112, 114, 94, 106, 113, 94, 113, 115, 93, 92, 114, 93, 114, 116, 95, 94, 115, 95, 115, 117, 96, 93, 116, 96, 116, 118, 97, 95, 117, 97, 117, 119, 98, 96, 118, 98, 118, 120, 99, 97, 119, 99, 119, 121, 100, 17, 107, 19, 98, 120, 101, 99, 121, 101, 121, 109, 117, 115, 122, 117, 122, 123, 118, 116, 124, 118, 124, 125, 119, 117, 123, 119, 123, 126, 120, 118, 125, 120, 125, 127, 121, 119, 126, 121, 126, 128, 107, 17, 129, 19, 120, 127, 109, 121, 128, 109, 128, 130, 108, 107, 129, 108, 129, 131, 110, 109, 130, 110, 130, 132, 111, 108, 131, 111, 131, 133, 112, 110, 132, 112, 132, 134, 113, 111, 133, 113, 133, 135, 114, 112, 134, 114, 134, 136, 115, 113, 135, 115, 135, 122, 116, 114, 136, 116, 136, 124, 132, 130, 137, 132, 137, 138, 133, 131, 139, 133, 139, 140, 134, 132, 138, 134, 138, 141, 135, 133, 140, 135, 140, 142, 136, 134, 141, 136, 141, 143, 122, 135, 142, 122, 142, 144, 124, 136, 143, 124, 143, 145, 123, 122, 144, 123, 144, 146, 125, 124, 145, 125, 145, 147, 126, 123, 146, 126, 146, 148, 127, 125, 147, 127, 147, 149, 128, 126, 148, 128, 148, 150, 129, 17, 151, 19, 127, 149, 130, 128, 150, 130, 150, 137, 131, 129, 151, 131, 151, 139, 147, 145, 152, 147, 152, 153, 148, 146, 154, 148, 154, 155, 149, 147, 153, 149, 153, 156, 150, 148, 155, 150, 155, 157, 151, 17, 158, 19, 149, 156, 137, 150, 157, 137, 157, 159, 139, 151, 158, 139, 158, 160, 138, 137, 159, 138, 159, 161, 140, 139, 160, 140, 160, 162, 141, 138, 161, 141, 161, 163, 142, 140, 162, 142, 162, 164, 143, 141, 163, 143, 163, 165, 144, 142, 164, 144, 164, 166, 145, 143, 165, 145, 165, 152, 146, 144, 166, 146, 166, 154, 163, 161, 167, 163, 167, 168, 164, 162, 169, 164, 169, 170, 165, 163, 168, 165, 168, 171, 166, 164, 170, 166, 170, 172, 152, 165, 171, 152, 171, 173, 154, 166, 172, 154, 172, 174, 153, 152, 173, 153, 173, 175, 155, 154, 174, 155, 174, 176, 156, 153, 175, 156, 175, 177, 157, 155, 176, 157, 176, 178, 158, 17, 179, 19, 156, 177, 159, 157, 178, 159, 178, 180, 160, 158, 179, 160, 179, 181, 161, 159, 180, 161, 180, 167, 162, 160, 181, 162, 181, 169, 177, 175, 182, 177, 182, 183, 178, 176, 184, 178, 184, 185, 179, 17, 186, 19, 177, 183, 180, 178, 185, 180, 185, 187, 181, 179, 186, 181, 186, 188, 167, 180, 187, 167, 187, 189, 169, 181, 188, 169, 188, 190, 168, 167, 189, 168, 189, 191, 170, 169, 190, 170, 190, 192, 171, 168, 191, 171, 191, 193, 172, 170, 192, 172, 192, 194, 173, 171, 193, 173, 193, 195, 174, 172, 194, 174, 194, 196, 175, 173, 195, 175, 195, 182, 176, 174, 196, 176, 196, 184, 192, 190, 197, 192, 197, 198, 193, 191, 199, 193, 199, 200, 194, 192, 198, 194, 198, 201, 195, 193, 200, 195, 200, 202, 196, 194, 201, 196, 201, 203, 182, 195, 202, 182, 202, 204, 184, 196, 203, 184, 203, 205, 183, 182, 204, 183, 204, 206, 185, 184, 205, 185, 205, 207, 186, 17, 208, 19, 183, 206, 187, 185, 207, 187, 207, 209, 188, 186, 208, 188, 208, 210, 189, 187, 209, 189, 209, 211, 190, 188, 210, 190, 210, 197, 191, 189, 211, 191, 211, 199, 207, 205, 212, 207, 212, 213, 208, 17, 214, 19, 206, 215, 209, 207, 213, 209, 213, 216, 210, 208, 214, 210, 214, 217, 211, 209, 216, 211, 216, 218, 197, 210, 217, 197, 217, 219, 199, 211, 218, 199, 218, 220, 198, 197, 219, 198, 219, 221, 200, 199, 220, 200, 220, 222, 201, 198, 221, 201, 221, 223, 202, 200, 222, 202, 222, 224, 203, 201, 223, 203, 223, 225, 204, 202, 224, 204, 224, 226, 205, 203, 225, 205, 225, 212, 206, 204, 226, 206, 226, 215, 222, 220, 227, 222, 227, 228, 223, 221, 229, 223, 229, 230, 224, 222, 228, 224, 228, 231, 225, 223, 230, 225, 230, 232, 226, 224, 231, 226, 231, 233, 212, 225, 232, 212, 232, 234, 215, 226, 233, 215, 233, 235, 213, 212, 234, 213, 234, 236, 214, 17, 237, 19, 215, 235, 216, 213, 236, 216, 236, 238, 217, 214, 237, 217, 237, 239, 218, 216, 238, 218, 238, 240, 219, 217, 239, 219, 239, 241, 220, 218, 240, 220, 240, 227, 221, 219, 241, 221, 241, 229, 237, 17, 242, 19, 235, 243, 238, 236, 244, 238, 244, 245, 239, 237, 242, 239, 242, 246, 240, 238, 245, 240, 245, 247, 241, 239, 246, 241, 246, 248, 227, 240, 247, 227, 247, 249, 229, 241, 248, 229, 248, 250, 228, 227, 249, 228, 249, 251, 230, 229, 250, 230, 250, 252, 231, 228, 251, 231, 251, 253, 232, 230, 252, 232, 252, 254, 233, 231, 253, 233, 253, 255, 234, 232, 254, 234, 254, 256, 235, 233, 255, 235, 255, 243, 236, 234, 256, 236, 256, 244, 252, 250, 257, 252, 257, 258, 253, 251, 259, 253, 259, 260, 254, 252, 258, 254, 258, 261, 255, 253, 260, 255, 260, 262, 256, 254, 261, 256, 261, 263, 243, 255, 262, 243, 262, 264, 244, 256, 263, 244, 263, 265, 242, 17, 266, 19, 243, 264, 245, 244, 265, 245, 265, 267, 246, 242, 266, 246, 266, 268, 247, 245, 267, 247, 267, 269, 248, 246, 268, 248, 268, 270, 249, 247, 269, 249, 269, 271, 250, 248, 270, 250, 270, 257, 251, 249, 271, 251, 271, 259, 267, 265, 272, 267, 272, 273, 268, 266, 274, 268, 274, 275, 269, 267, 273, 269, 273, 276, 270, 268, 275, 270, 275, 277, 271, 269, 276, 271, 276, 278, 257, 270, 277, 257, 277, 279, 259, 271, 278, 259, 278, 280, 258, 257, 279, 258, 279, 281, 260, 259, 280, 260, 280, 282, 261, 258, 281, 261, 281, 283, 262, 260, 282, 262, 282, 284, 263, 261, 283, 263, 283, 285, 264, 262, 284, 264, 284, 286, 265, 263, 285, 265, 285, 272, 266, 17, 274, 19, 264, 286, 282, 280, 287, 282, 287, 288, 283, 281, 289, 283, 289, 290, 284, 282, 288, 284, 288, 291, 285, 283, 290, 285, 290, 292, 286, 284, 291, 286, 291, 293, 272, 285, 292, 272, 292, 294, 274, 17, 295, 19, 286, 293, 273, 272, 294, 273, 294, 296, 275, 274, 295, 275, 295, 297, 276, 273, 296, 276, 296, 298, 277, 275, 297, 277, 297, 299, 278, 276, 298, 278, 298, 300, 279, 277, 299, 279, 299, 301, 280, 278, 300, 280, 300, 287, 281, 279, 301, 281, 301, 289, 298, 296, 302, 298, 302, 303, 299, 297, 304, 299, 304, 305, 300, 298, 303, 300, 303, 306, 301, 299, 305, 301, 305, 307, 287, 300, 306, 287, 306, 308, 289, 301, 307, 289, 307, 309, 288, 287, 308, 288, 308, 310, 290, 289, 309, 290, 309, 311, 291, 288, 310, 291, 310, 312, 292, 290, 311, 292, 311, 313, 293, 291, 312, 293, 312, 314, 294, 292, 313, 294, 313, 315, 295, 17, 316, 19, 293, 314, 296, 294, 315, 296, 315, 302, 297, 295, 316, 297, 316, 304, 312, 310, 317, 312, 317, 318, 313, 311, 319, 313, 319, 320, 314, 312, 318, 314, 318, 321, 315, 313, 320, 315, 320, 322, 316, 17, 323, 19, 314, 321, 302, 315, 322, 302, 322, 324, 304, 316, 323, 304, 323, 325, 303, 302, 324, 303, 324, 326, 305, 304, 325, 305, 325, 327, 306, 303, 326, 306, 326, 328, 307, 305, 327, 307, 327, 329, 308, 306, 328, 308, 328, 330, 309, 307, 329, 309, 329, 331, 310, 308, 330, 310, 330, 317, 311, 309, 331, 311, 331, 319, 327, 325, 332, 327, 332, 333, 328, 326, 334, 328, 334, 335, 329, 327, 333, 329, 333, 336, 330, 328, 335, 330, 335, 337, 331, 329, 336, 331, 336, 338, 317, 330, 337, 317, 337, 339, 319, 331, 338, 319, 338, 340, 318, 317, 339, 318, 339, 341, 320, 319, 340, 320, 340, 342, 321, 318, 341, 321, 341, 343, 322, 320, 342, 322, 342, 344, 323, 17, 345, 19, 321, 343, 324, 322, 344, 324, 344, 346, 325, 323, 345, 325, 345, 332, 326, 324, 346, 326, 346, 334, 342, 340, 347, 342, 347, 348, 343, 341, 349, 343, 349, 350, 344, 342, 348, 344, 348, 351, 345, 17, 352, 19, 343, 350, 346, 344, 351, 346, 351, 353, 332, 345, 352, 332, 352, 354, 334, 346, 353, 334, 353, 355, 333, 332, 354, 333, 354, 356, 335, 334, 355, 335, 355, 357, 336, 333, 356, 336, 356, 358, 337, 335, 357, 337, 357, 359, 338, 336, 358, 338, 358, 360, 339, 337, 359, 339, 359, 361, 340, 338, 360, 340, 360, 347, 341, 339, 361, 341, 361, 349, 357, 355, 362, 357, 362, 363, 358, 356, 364, 358, 364, 365, 359, 357, 363, 359, 363, 366, 360, 358, 365, 360, 365, 367, 361, 359, 366, 361, 366, 368, 347, 360, 367, 347, 367, 369, 349, 361, 368, 349, 368, 370, 348, 347, 369, 348, 369, 371, 350, 349, 370, 350, 370, 372, 351, 348, 371, 351, 371, 373, 352, 17, 374, 19, 350, 372, 353, 351, 373, 353, 373, 375, 354, 352, 374, 354, 374, 376, 355, 353, 375, 355, 375, 362, 356, 354, 376, 356, 376, 364, 372, 370, 377, 372, 377, 378, 373, 371, 379, 373, 379, 380, 374, 17, 381, 19, 372, 378, 375, 373, 380, 375, 380, 382, 376, 374, 381, 376, 381, 383, 362, 375, 382, 362, 382, 384, 364, 376, 383, 364, 383, 385, 363, 362, 384, 363, 384, 386, 365, 364, 385, 365, 385, 387, 366, 363, 386, 366, 386, 388, 367, 365, 387, 367, 387, 389, 368, 366, 388, 368, 388, 390, 369, 367, 389, 369, 389, 391, 370, 368, 390, 370, 390, 377, 371, 369, 391, 371, 391, 379, 387, 385, 392, 387, 392, 393, 388, 386, 394, 388, 394, 395, 389, 387, 393, 389, 393, 396, 390, 388, 395, 390, 395, 397, 391, 389, 396, 391, 396, 398, 377, 390, 397, 377, 397, 399, 379, 391, 398, 379, 398, 400, 378, 377, 399, 378, 399, 401, 380, 379, 400, 380, 400, 402, 381, 17, 403, 19, 378, 401, 382, 380, 402, 382, 402, 404, 383, 381, 403, 383, 403, 405, 384, 382, 404, 384, 404, 406, 385, 383, 405, 385, 405, 392, 386, 384, 406, 386, 406, 394, 402, 400, 407, 402, 407, 408, 403, 17, 409, 19, 401, 410, 404, 402, 408, 404, 408, 411, 405, 403, 409, 405, 409, 412, 406, 404, 411, 406, 411, 413, 392, 405, 412, 392, 412, 414, 394, 406, 413, 394, 413, 415, 393, 392, 414, 393, 414, 416, 395, 394, 415, 395, 415, 417, 396, 393, 416, 396, 416, 418, 397, 395, 417, 397, 417, 419, 398, 396, 418, 398, 418, 420, 399, 397, 419, 399, 419, 421, 400, 398, 420, 400, 420, 407, 401, 399, 421, 401, 421, 410, 417, 415, 422, 417, 422, 423, 418, 416, 424, 418, 424, 425, 419, 417, 423, 419, 423, 426, 420, 418, 425, 420, 425, 427, 421, 419, 426, 421, 426, 428, 407, 420, 427, 407, 427, 429, 410, 421, 428, 410, 428, 430, 408, 407, 429, 408, 429, 431, 409, 17, 432, 19, 410, 430, 411, 408, 431, 411, 431, 433, 412, 409, 432, 412, 432, 434, 413, 411, 433, 413, 433, 435, 414, 412, 434, 414, 434, 436, 415, 413, 435, 415, 435, 422, 416, 414, 436, 416, 436, 424, 19, 430, 437, 433, 431, 438, 433, 438, 439, 434, 432, 440, 434, 440, 441, 435, 433, 439, 435, 439, 442, 436, 434, 441, 436, 441, 443, 422, 435, 442, 422, 442, 444, 424, 436, 443, 424, 443, 445, 423, 422, 444, 423, 444, 446, 425, 424, 445, 425, 445, 447, 426, 423, 446, 426, 446, 448, 427, 425, 447, 427, 447, 449, 428, 426, 448, 428, 448, 450, 429, 427, 449, 429, 449, 451, 430, 428, 450, 430, 450, 437, 431, 429, 451, 431, 451, 438, 432, 17, 440, 448, 446, 452, 448, 452, 453, 449, 447, 454, 449, 454, 455, 450, 448, 453, 450, 453, 456, 451, 449, 455, 451, 455, 457, 437, 450, 456, 437, 456, 458, 438, 451, 457, 438, 457, 459, 440, 17, 460, 19, 437, 458, 439, 438, 459, 439, 459, 461, 441, 440, 460, 441, 460, 462, 442, 439, 461, 442, 461, 463, 443, 441, 462, 443, 462, 464, 444, 442, 463, 444, 463, 465, 445, 443, 464, 445, 464, 466, 446, 444, 465, 446, 465, 452, 447, 445, 466, 447, 466, 454, 462, 460, 467, 462, 467, 468, 463, 461, 469, 463, 469, 470, 464, 462, 468, 464, 468, 471, 465, 463, 470, 465, 470, 472, 466, 464, 471, 466, 471, 473, 452, 465, 472, 452, 472, 474, 454, 466, 473, 454, 473, 475, 453, 452, 474, 453, 474, 476, 455, 454, 475, 455, 475, 477, 456, 453, 476, 456, 476, 478, 457, 455, 477, 457, 477, 479, 458, 456, 478, 458, 478, 480, 459, 457, 479, 459, 479, 481, 460, 17, 467, 19, 458, 480, 461, 459, 481, 461, 481, 469, 477, 475, 5, 477, 5, 4, 478, 476, 0, 478, 0, 8, 479, 477, 4, 479, 4, 10, 480, 478, 8, 480, 8, 12, 481, 479, 10, 481, 10, 14, 467, 17, 16, 19, 480, 12, 469, 481, 14, 469, 14, 20, 468, 467, 16, 468, 16, 22, 470, 469, 20, 470, 20, 24, 471, 468, 22, 471, 22, 26, 472, 470, 24, 472, 24, 28, 473, 471, 26, 473, 26, 30, 474, 472, 28, 474, 28, 1, 475, 473, 30, 475, 30, 5, 476, 474, 1, 476, 1, 0]
            point3f[] points = [(0, 0.055557, -0.083147), (0, 0.0707107, -0.0707107), (0.013795, 0.069352, -0.0707107), (0.0108386, 0.0544895, -0.083147), (0, 0.0923879, 0.0382683), (0, 0.083147, 0.055557), (0.0162212, 0.0815493, 0.055557), (0.018024, 0.0906127, 0.0382683), (0, 0.0382683, -0.092388), (0.0074658, 0.037533, -0.092388), (0, 0.0980785, 0.019509), (0.0191342, 0.096194, 0.019509), (0, 0.019509, -0.0980785), (0.003806, 0.0191342, -0.0980785), (0, 0.1, 0), (0.019509, 0.0980785, 0), (0, 0.019509, 0.0980785), (0, 0, 0.1), (0.003806, 0.0191342, 0.0980785), (0, 0, -0.1), (0, 0.0980785, -0.019509), (0.0191342, 0.096194, -0.019509), (0, 0.0382683, 0.092388), (0.0074658, 0.037533, 0.092388), (0, 0.0923879, -0.0382683), (0.018024, 0.0906127, -0.0382683), (0, 0.055557, 0.083147), (0.0108386, 0.0544895, 0.083147), (0, 0.083147, -0.055557), (0.0162212, 0.0815493, -0.055557), (0, 0.0707107, 0.0707107), (0.013795, 0.069352, 0.0707107), (0.031819, 0.0768178, -0.055557), (0.0270598, 0.0653281, -0.0707107), (0.0270598, 0.0653281, 0.0707107), (0.031819, 0.0768178, 0.055557), (0.0212608, 0.051328, -0.083147), (0.0353553, 0.0853553, 0.0382683), (0.0146447, 0.0353553, -0.092388), (0.037533, 0.0906127, 0.019509), (0.0074658, 0.018024, -0.0980785), (0.0382683, 0.0923879, 0), (0.0074658, 0.018024, 0.0980785), (0.037533, 0.0906127, -0.019509), (0.0146447, 0.0353553, 0.092388), (0.0353553, 0.0853553, -0.0382683), (0.0212608, 0.051328, 0.083147), (0.0108386, 0.0162212, 0.0980785), (0.0108386, 0.0162212, -0.0980785), (0.055557, 0.083147, 0), (0.0544895, 0.0815493, -0.019509), (0.0212608, 0.031819, 0.092388), (0.051328, 0.0768178, -0.0382683), (0.0308658, 0.046194, 0.083147), (0.046194, 0.0691342, -0.055557), (0.0392847, 0.0587938, 0.0707107), (0.0392847, 0.0587938, -0.0707107), (0.046194, 0.0691342, 0.055557), (0.0308658, 0.046194, -0.083147), (0.051328, 0.0768178, 0.0382683), (0.0212608, 0.031819, -0.092388), (0.0544895, 0.0815493, 0.019509), (0.05, 0.05, 0.0707107), (0.0587938, 0.0587938, 0.055557), (0.05, 0.05, -0.0707107), (0.0392847, 0.0392847, -0.083147), (0.0653281, 0.0653281, 0.0382683), (0.0270598, 0.0270598, -0.092388), (0.069352, 0.069352, 0.019509), (0.013795, 0.013795, -0.0980785), (0.0707107, 0.0707107, 0), (0.013795, 0.013795, 0.0980785), (0.069352, 0.069352, -0.019509), (0.0270598, 0.0270598, 0.092388), (0.0653281, 0.0653281, -0.0382683), (0.0392847, 0.0392847, 0.083147), (0.0587938, 0.0587938, -0.055557), (0.083147, 0.055557, 0), (0.0815493, 0.0544895, -0.019509), (0.0162212, 0.0108386, 0.0980785), (0.031819, 0.0212608, 0.092388), (0.0768178, 0.051328, -0.0382683), (0.046194, 0.0308658, 0.083147), (0.0691342, 0.046194, -0.055557), (0.0587938, 0.0392847, 0.0707107), (0.0587938, 0.0392847, -0.0707107), (0.0691342, 0.046194, 0.055557), (0.046194, 0.0308658, -0.083147), (0.0768178, 0.051328, 0.0382683), (0.031819, 0.0212608, -0.092388), (0.0815493, 0.0544895, 0.019509), (0.0162212, 0.0108386, -0.0980785), (0.0653281, 0.0270598, -0.0707107), (0.051328, 0.0212607, -0.083147), (0.0768178, 0.031819, 0.055557), (0.0853553, 0.0353553, 0.0382683), (0.0353553, 0.0146447, -0.092388), (0.0906127, 0.037533, 0.019509), (0.018024, 0.0074658, -0.0980785), (0.0923879, 0.0382683, 0), (0.018024, 0.0074658, 0.0980785), (0.0906127, 0.037533, -0.019509), (0.0353553, 0.0146447, 0.092388), (0.0853553, 0.0353553, -0.0382683), (0.051328, 0.0212607, 0.083147), (0.0768178, 0.031819, -0.055557), (0.0653281, 0.0270598, 0.0707107), (0.0191342, 0.003806, 0.0980785), (0.037533, 0.0074658, 0.092388), (0.096194, 0.0191342, -0.019509), (0.0906127, 0.018024, -0.0382683), (0.0544895, 0.0108386, 0.083147), (0.0815493, 0.0162212, -0.055557), (0.069352, 0.013795, 0.0707107), (0.069352, 0.013795, -0.0707107), (0.0815493, 0.0162212, 0.055557), (0.0544895, 0.0108386, -0.083147), (0.0906127, 0.018024, 0.0382683), (0.037533, 0.0074658, -0.092388), (0.096194, 0.0191342, 0.019509), (0.0191342, 0.003806, -0.0980785), (0.0980785, 0.019509, 0), (0.0831469, -0, 0.055557), (0.0923879, 0, 0.0382683), (0.055557, -0, -0.083147), (0.0382683, -0, -0.092388), (0.0980785, -0, 0.019509), (0.019509, -0, -0.0980785), (0.1, -0, 0), (0.019509, -0, 0.0980785), (0.0980785, -0, -0.019509), (0.0382683, -0, 0.092388), (0.0923879, 0, -0.0382683), (0.055557, -0, 0.083147), (0.0831469, -0, -0.055557), (0.0707107, 0, 0.0707107), (0.0707107, 0, -0.0707107), (0.096194, -0.0191342, -0.019509), (0.0906127, -0.018024, -0.0382683), (0.037533, -0.0074658, 0.092388), (0.0544895, -0.0108386, 0.083147), (0.0815493, -0.0162212, -0.055557), (0.069352, -0.013795, 0.0707107), (0.069352, -0.013795, -0.0707107), (0.0815493, -0.0162212, 0.055557), (0.0544895, -0.0108386, -0.083147), (0.0906127, -0.018024, 0.0382683), (0.037533, -0.0074658, -0.092388), (0.096194, -0.0191342, 0.019509), (0.0191342, -0.003806, -0.0980785), (0.0980785, -0.019509, 0), (0.0191342, -0.003806, 0.0980785), (0.051328, -0.0212608, -0.083147), (0.0353553, -0.0146447, -0.092388), (0.0853553, -0.0353553, 0.0382683), (0.0906127, -0.037533, 0.019509), (0.018024, -0.0074658, -0.0980785), (0.0923879, -0.0382683, 0), (0.018024, -0.0074658, 0.0980785), (0.0906127, -0.037533, -0.019509), (0.0353553, -0.0146447, 0.092388), (0.0853553, -0.0353553, -0.0382683), (0.051328, -0.0212608, 0.083147), (0.0768178, -0.031819, -0.055557), (0.0653281, -0.0270598, 0.0707107), (0.0653281, -0.0270598, -0.0707107), (0.0768178, -0.031819, 0.055557), (0.0768178, -0.051328, -0.0382683), (0.0691341, -0.046194, -0.055557), (0.046194, -0.0308658, 0.083147), (0.0587938, -0.0392847, 0.0707107), (0.0587938, -0.0392847, -0.0707107), (0.0691341, -0.046194, 0.055557), (0.046194, -0.0308658, -0.083147), (0.0768178, -0.051328, 0.0382683), (0.031819, -0.0212608, -0.092388), (0.0815493, -0.0544895, 0.019509), (0.0162212, -0.0108386, -0.0980785), (0.0831469, -0.055557, 0), (0.0162212, -0.0108386, 0.0980785), (0.0815493, -0.0544895, -0.019509), (0.031819, -0.0212608, 0.092388), (0.0270598, -0.0270598, -0.092388), (0.013795, -0.013795, -0.0980785), (0.069352, -0.069352, 0.019509), (0.0707106, -0.0707107, 0), (0.013795, -0.013795, 0.0980785), (0.069352, -0.069352, -0.019509), (0.0270598, -0.0270598, 0.092388), (0.0653281, -0.0653281, -0.0382683), (0.0392847, -0.0392847, 0.083147), (0.0587938, -0.0587938, -0.055557), (0.05, -0.05, 0.0707107), (0.05, -0.05, -0.0707107), (0.0587938, -0.0587938, 0.055557), (0.0392847, -0.0392847, -0.083147), (0.0653281, -0.0653281, 0.0382683), (0.0308658, -0.046194, 0.083147), (0.0392847, -0.0587938, 0.0707107), (0.046194, -0.0691342, -0.055557), (0.0392847, -0.0587938, -0.0707107), (0.046194, -0.0691342, 0.055557), (0.0308658, -0.046194, -0.083147), (0.051328, -0.0768178, 0.0382683), (0.0212607, -0.031819, -0.092388), (0.0544895, -0.0815493, 0.019509), (0.0108386, -0.0162212, -0.0980785), (0.055557, -0.0831469, 0), (0.0108386, -0.0162212, 0.0980785), (0.0544895, -0.0815493, -0.019509), (0.0212607, -0.031819, 0.092388), (0.051328, -0.0768178, -0.0382683), (0.037533, -0.0906127, 0.019509), (0.0382683, -0.0923879, 0), (0.0074658, -0.018024, 0.0980785), (0.0074658, -0.018024, -0.0980785), (0.037533, -0.0906127, -0.019509), (0.0146447, -0.0353553, 0.092388), (0.0353553, -0.0853553, -0.0382683), (0.0212607, -0.051328, 0.083147), (0.0318189, -0.0768178, -0.055557), (0.0270598, -0.0653281, 0.0707107), (0.0270598, -0.0653281, -0.0707107), (0.0318189, -0.0768178, 0.055557), (0.0212607, -0.051328, -0.083147), (0.0353553, -0.0853553, 0.0382683), (0.0146447, -0.0353553, -0.092388), (0.0162212, -0.0815493, -0.055557), (0.013795, -0.069352, -0.0707107), (0.013795, -0.069352, 0.0707107), (0.0162212, -0.0815493, 0.055557), (0.0108386, -0.0544895, -0.083147), (0.018024, -0.0906127, 0.0382683), (0.0074658, -0.037533, -0.092388), (0.0191342, -0.0961939, 0.019509), (0.003806, -0.0191342, -0.0980785), (0.019509, -0.0980785, 0), (0.003806, -0.0191342, 0.0980785), (0.0191342, -0.0961939, -0.019509), (0.0074658, -0.037533, 0.092388), (0.018024, -0.0906127, -0.0382683), (0.0108386, -0.0544895, 0.083147), (-0, -0.019509, 0.0980785), (-0, -0.019509, -0.0980785), (-0, -0.0999999, 0), (-0, -0.0980785, -0.019509), (-0, -0.0382683, 0.092388), (0, -0.0923879, -0.0382683), (-0, -0.055557, 0.083147), (-0, -0.0831469, -0.055557), (-0, -0.0707107, 0.0707107), (-0, -0.0707107, -0.0707107), (-0, -0.0831469, 0.055557), (-0, -0.055557, -0.083147), (0, -0.0923879, 0.0382683), (-0, -0.0382683, -0.092388), (-0, -0.0980785, 0.019509), (-0.013795, -0.069352, 0.0707107), (-0.0162212, -0.0815493, 0.055557), (-0.013795, -0.069352, -0.0707107), (-0.0108386, -0.0544895, -0.083147), (-0.018024, -0.0906127, 0.0382683), (-0.0074658, -0.037533, -0.092388), (-0.0191342, -0.0961939, 0.019509), (-0.003806, -0.0191342, -0.0980785), (-0.0195091, -0.0980785, 0), (-0.003806, -0.0191342, 0.0980785), (-0.0191342, -0.0961939, -0.019509), (-0.0074658, -0.037533, 0.092388), (-0.018024, -0.0906127, -0.0382683), (-0.0108386, -0.0544895, 0.083147), (-0.0162212, -0.0815493, -0.055557), (-0.0382684, -0.0923879, 0), (-0.037533, -0.0906127, -0.019509), (-0.0074658, -0.018024, 0.0980785), (-0.0146447, -0.0353553, 0.092388), (-0.0353553, -0.0853553, -0.0382683), (-0.0212608, -0.051328, 0.083147), (-0.031819, -0.0768177, -0.055557), (-0.0270598, -0.0653281, 0.0707107), (-0.0270598, -0.0653281, -0.0707107), (-0.031819, -0.0768177, 0.055557), (-0.0212608, -0.051328, -0.083147), (-0.0353553, -0.0853553, 0.0382683), (-0.0146447, -0.0353553, -0.092388), (-0.037533, -0.0906127, 0.019509), (-0.0074658, -0.018024, -0.0980785), (-0.0392847, -0.0587938, -0.0707107), (-0.0308658, -0.0461939, -0.083147), (-0.046194, -0.0691341, 0.055557), (-0.051328, -0.0768178, 0.0382683), (-0.0212608, -0.031819, -0.092388), (-0.0544895, -0.0815493, 0.019509), (-0.0108386, -0.0162212, -0.0980785), (-0.055557, -0.0831469, 0), (-0.0108386, -0.0162212, 0.0980785), (-0.0544895, -0.0815493, -0.019509), (-0.0212608, -0.031819, 0.092388), (-0.051328, -0.0768178, -0.0382683), (-0.0308658, -0.0461939, 0.083147), (-0.046194, -0.0691341, -0.055557), (-0.0392847, -0.0587938, 0.0707107), (-0.069352, -0.069352, -0.019509), (-0.0653281, -0.0653281, -0.0382683), (-0.0270598, -0.0270598, 0.092388), (-0.0392847, -0.0392847, 0.083147), (-0.0587938, -0.0587937, -0.055557), (-0.05, -0.05, 0.0707107), (-0.05, -0.05, -0.0707107), (-0.0587938, -0.0587937, 0.055557), (-0.0392847, -0.0392847, -0.083147), (-0.0653281, -0.0653281, 0.0382683), (-0.0270598, -0.0270598, -0.092388), (-0.069352, -0.069352, 0.019509), (-0.013795, -0.013795, -0.0980785), (-0.0707107, -0.0707106, 0), (-0.013795, -0.013795, 0.0980785), (-0.046194, -0.0308658, -0.083147), (-0.031819, -0.0212607, -0.092388), (-0.0768177, -0.051328, 0.0382683), (-0.0815493, -0.0544895, 0.019509), (-0.0162212, -0.0108386, -0.0980785), (-0.0831469, -0.0555569, 0), (-0.0162212, -0.0108386, 0.0980785), (-0.0815493, -0.0544895, -0.019509), (-0.031819, -0.0212607, 0.092388), (-0.0768177, -0.051328, -0.0382683), (-0.046194, -0.0308658, 0.083147), (-0.0691341, -0.0461939, -0.055557), (-0.0587938, -0.0392847, 0.0707107), (-0.0587938, -0.0392847, -0.0707107), (-0.0691341, -0.0461939, 0.055557), (-0.0353553, -0.0146447, 0.092388), (-0.051328, -0.0212607, 0.083147), (-0.0853553, -0.0353553, -0.0382683), (-0.0768177, -0.0318189, -0.055557), (-0.0653281, -0.0270598, 0.0707107), (-0.0653281, -0.0270598, -0.0707107), (-0.0768177, -0.0318189, 0.055557), (-0.051328, -0.0212607, -0.083147), (-0.0853553, -0.0353553, 0.0382683), (-0.0353553, -0.0146447, -0.092388), (-0.0906127, -0.037533, 0.019509), (-0.018024, -0.0074658, -0.0980785), (-0.0923879, -0.0382683, 0), (-0.018024, -0.0074658, 0.0980785), (-0.0906127, -0.037533, -0.019509), (-0.0906127, -0.018024, 0.0382683), (-0.0961939, -0.0191341, 0.019509), (-0.037533, -0.0074658, -0.092388), (-0.0191342, -0.003806, -0.0980785), (-0.0980784, -0.019509, 0), (-0.0191342, -0.003806, 0.0980785), (-0.0961939, -0.0191341, -0.019509), (-0.037533, -0.0074658, 0.092388), (-0.0906127, -0.018024, -0.0382683), (-0.0544895, -0.0108386, 0.083147), (-0.0815493, -0.0162211, -0.055557), (-0.069352, -0.013795, 0.0707107), (-0.069352, -0.013795, -0.0707107), (-0.0815493, -0.0162211, 0.055557), (-0.0544895, -0.0108386, -0.083147), (-0.0923879, 0, -0.0382683), (-0.0831469, 0, -0.055557), (-0.055557, 0, 0.083147), (-0.0707107, 0, 0.0707107), (-0.0707107, 0, -0.0707107), (-0.0831469, 0, 0.055557), (-0.055557, 0, -0.083147), (-0.0923879, 0, 0.0382683), (-0.0382683, 0, -0.092388), (-0.0980785, 0, 0.019509), (-0.019509, 0, -0.0980785), (-0.0999999, 0, 0), (-0.019509, 0, 0.0980785), (-0.0980785, 0, -0.019509), (-0.0382683, 0, 0.092388), (-0.037533, 0.0074658, -0.092388), (-0.0191342, 0.003806, -0.0980785), (-0.0961939, 0.0191342, 0.019509), (-0.0980784, 0.0195091, 0), (-0.0191342, 0.003806, 0.0980785), (-0.0961939, 0.0191342, -0.019509), (-0.037533, 0.0074658, 0.092388), (-0.0906127, 0.018024, -0.0382683), (-0.0544895, 0.0108386, 0.083147), (-0.0815493, 0.0162212, -0.055557), (-0.069352, 0.013795, 0.0707107), (-0.069352, 0.013795, -0.0707107), (-0.0815493, 0.0162212, 0.055557), (-0.0544895, 0.0108386, -0.083147), (-0.0906127, 0.018024, 0.0382683), (-0.0513279, 0.0212607, 0.083147), (-0.0653281, 0.0270598, 0.0707107), (-0.0768177, 0.031819, -0.055557), (-0.0653281, 0.0270598, -0.0707107), (-0.0768177, 0.031819, 0.055557), (-0.0513279, 0.0212607, -0.083147), (-0.0853553, 0.0353553, 0.0382683), (-0.0353553, 0.0146447, -0.092388), (-0.0906127, 0.037533, 0.019509), (-0.018024, 0.0074658, -0.0980785), (-0.0923878, 0.0382684, 0), (-0.018024, 0.0074658, 0.0980785), (-0.0906127, 0.037533, -0.019509), (-0.0353553, 0.0146447, 0.092388), (-0.0853553, 0.0353553, -0.0382683), (-0.0815493, 0.0544895, 0.019509), (-0.0831468, 0.055557, 0), (-0.0162212, 0.0108386, 0.0980785), (-0.0162212, 0.0108386, -0.0980785), (-0.0815493, 0.0544895, -0.019509), (-0.0318189, 0.0212607, 0.092388), (-0.0768177, 0.051328, -0.0382683), (-0.0461939, 0.0308658, 0.083147), (-0.0691341, 0.046194, -0.055557), (-0.0587938, 0.0392847, 0.0707107), (-0.0587938, 0.0392847, -0.0707107), (-0.0691341, 0.046194, 0.055557), (-0.0461939, 0.0308658, -0.083147), (-0.0768177, 0.051328, 0.0382683), (-0.0318189, 0.0212607, -0.092388), (-0.0587937, 0.0587938, -0.055557), (-0.05, 0.05, -0.0707107), (-0.05, 0.05, 0.0707107), (-0.0587937, 0.0587938, 0.055557), (-0.0392847, 0.0392847, -0.083147), (-0.0653281, 0.0653281, 0.0382683), (-0.0270598, 0.0270598, -0.092388), (-0.0693519, 0.069352, 0.019509), (-0.013795, 0.013795, -0.0980785), (-0.0707106, 0.0707106, 0), (-0.013795, 0.013795, 0.0980785), (-0.0693519, 0.069352, -0.019509), (-0.0270598, 0.0270598, 0.092388), (-0.0653281, 0.0653281, -0.0382683), (-0.0392847, 0.0392847, 0.083147), (-0.0108386, 0.0162212, -0.0980785), (-0.0555569, 0.0831469, 0), (-0.0544895, 0.0815493, -0.019509), (-0.0108386, 0.0162212, 0.0980785), (-0.0212607, 0.031819, 0.092388), (-0.051328, 0.0768177, -0.0382683), (-0.0308658, 0.0461939, 0.083147), (-0.0461939, 0.0691341, -0.055557), (-0.0392847, 0.0587938, 0.0707107), (-0.0392847, 0.0587938, -0.0707107), (-0.0461939, 0.0691341, 0.055557), (-0.0308658, 0.0461939, -0.083147), (-0.051328, 0.0768177, 0.0382683), (-0.0212607, 0.031819, -0.092388), (-0.0544895, 0.0815493, 0.019509), (-0.0270598, 0.0653281, -0.0707107), (-0.0212607, 0.051328, -0.083147), (-0.0318189, 0.0768177, 0.055557), (-0.0353553, 0.0853553, 0.0382683), (-0.0146446, 0.0353553, -0.092388), (-0.037533, 0.0906127, 0.019509), (-0.0074658, 0.018024, -0.0980785), (-0.0382683, 0.0923879, 0), (-0.0074658, 0.018024, 0.0980785), (-0.037533, 0.0906127, -0.019509), (-0.0146446, 0.0353553, 0.092388), (-0.0353553, 0.0853553, -0.0382683), (-0.0212607, 0.051328, 0.083147), (-0.0318189, 0.0768177, -0.055557), (-0.0270598, 0.0653281, 0.0707107), (-0.003806, 0.0191342, 0.0980785), (-0.0074658, 0.037533, 0.092388), (-0.0191341, 0.0961939, -0.019509), (-0.018024, 0.0906127, -0.0382683), (-0.0108386, 0.0544895, 0.083147), (-0.0162211, 0.0815493, -0.055557), (-0.013795, 0.069352, 0.0707107), (-0.013795, 0.069352, -0.0707107), (-0.0162211, 0.0815493, 0.055557), (-0.0108386, 0.0544895, -0.083147), (-0.018024, 0.0906127, 0.0382683), (-0.0074658, 0.037533, -0.092388), (-0.0191341, 0.0961939, 0.019509), (-0.003806, 0.0191342, -0.0980785), (-0.019509, 0.0980784, 0)]
            uniform token subdivisionScheme = "none"
        }
    }
}
